<svg xmlns="http://www.w3.org/2000/svg" viewBox="0 0 223.26 70.32"><defs><style>.a{fill:#243a78;}</style></defs><title>eng</title><path class="a" d="M11.63.74a.81.81,0,0,0-.8.65.28.28,0,0,0,0,.15l0,.22c-.16,1.12-.31,2.19-.42,3.29S10.1,7.11,10,8.15c-.05.54-.11,1.08-.17,1.62,0,.24-.06.47-.1.71A10.07,10.07,0,0,0,9.58,12a26.7,26.7,0,0,1-.35,3.76l-.07.46C9.08,17,9,17.7,8.84,18.4c-.06.35-.12.7-.17,1.06l0-.11c-.15-.76-.29-1.48-.39-2.23S8,15.61,8,14.87s-.14-1.21-.23-1.79a24,24,0,0,0-.45-2.49A2.59,2.59,0,0,0,7,9.76a.74.74,0,0,0-.57-.29.67.67,0,0,0-.54.24l-.06.09a1.34,1.34,0,0,0-.32.92,4.53,4.53,0,0,1-.06.62c0,.15,0,.3-.05.43l-.07.42a9.83,9.83,0,0,0-.16,1.17c0,.57-.07,1.15-.1,1.72S5,16.22,5,16.78s-.1.92-.16,1.39-.12,1-.18,1.56c-.05-.25-.09-.49-.12-.73s-.05-.39-.09-.58c-.11-.55-.19-1.12-.26-1.66S4,15.61,3.89,15.05c-.18-1-.38-2-.57-3s-.39-2-.58-3c-.24-1.31-.4-2.59-.58-4.12a18.14,18.14,0,0,0-.51-3,4.09,4.09,0,0,0-.32-1A.74.74,0,0,0,.91.43a.71.71,0,0,0-.59,0c-.18.1-.45.37-.25,1A16.78,16.78,0,0,1,.73,4.28C.81,5.18,1,6,1.11,7l0,.26a10.21,10.21,0,0,0,.18,1.2l0,.18c.28,1.57.55,3.14.8,4.72.1.58.2,1.17.31,1.75.17.92.34,1.86.48,2.82.15.77.27,1.58.39,2.36.08.55.17,1.1.26,1.64,0,.14,0,.29.05.43a4.49,4.49,0,0,0,.06.49,1,1,0,0,0,.49.68.78.78,0,0,0,.34.08A1.16,1.16,0,0,0,5,23.45a1,1,0,0,0,.38-.28l.05-.05,0-.07a50.47,50.47,0,0,0,.73-5.49L6.3,16.4c0-.91.1-1.85.17-2.77a11.38,11.38,0,0,1,.23,1.52c.15,1.61.42,3.27.65,4.61.06.32.1.65.15,1s.1.66.15,1a2.67,2.67,0,0,0,.67,1.52.84.84,0,0,0,.87.25c.18-.07.42-.28.49-.82a3.13,3.13,0,0,0,0-.54c0-.34.08-.69.12-1s.11-1,.19-1.51l.15-1.06c.29-2.06.6-4.18.69-6.31A15.4,15.4,0,0,1,11,10.6a41.93,41.93,0,0,0,.51-4.2l0-.34a10.89,10.89,0,0,1,.28-2.13,18.86,18.86,0,0,0,.45-2.14A1,1,0,0,0,12.08,1,.65.65,0,0,0,11.63.74Z"/><path class="a" d="M21.33.57A.66.66,0,0,0,20.58,0,.73.73,0,0,0,20,.87a2.13,2.13,0,0,0,0,.37,1.83,1.83,0,0,1,0,.34c.06,1.17.08,2.37.11,3.55l0,.53a19.52,19.52,0,0,1,0,2c-.13,1.85-.14,3.73-.14,5.55,0,.92,0,1.84,0,2.75L20,17.57c-.26.26-.43.29-.55.28a10.54,10.54,0,0,0-2.31-.06l-.65,0h-.07a.65.65,0,0,1-.56-.11c0-.66,0-1.33,0-2a19.78,19.78,0,0,1,0-2.13c.09-1.28.09-2.58.08-3.84,0-.64,0-1.28,0-1.92V3.14c0-.62,0-1.24-.05-1.89V1.18A2.41,2.41,0,0,0,15.69.5a.69.69,0,0,0-.32-.38.59.59,0,0,0-.47,0,.59.59,0,0,0-.47.77c0,.28.06.56.1.85s.1.72.12,1.08,0,.78,0,1.19,0,.63,0,1V6.25c0,.6,0,1.18,0,1.77,0,.3,0,.6,0,.9,0,1.17,0,2.32,0,3.5,0,.49,0,1-.05,1.48a9.25,9.25,0,0,0,0,2.52,13.35,13.35,0,0,1-.08,3.3c-.11.81-.17,1.64-.23,2.45a2.81,2.81,0,0,0,.1.92.62.62,0,0,0,.49.4.65.65,0,0,0,.57-.28,1.23,1.23,0,0,0,.17-.57l0-.14c0-.34,0-.69,0-1s0-.67,0-1a4.21,4.21,0,0,1,.19-1.19,11.29,11.29,0,0,1,4,.09,12,12,0,0,1,0,2v.08c0,.56-.05,1.1-.05,1.64a.64.64,0,0,0,.47.72l.14,0a.69.69,0,0,0,.4-.13.7.7,0,0,0,.29-.49,4.73,4.73,0,0,0,0-.65c0-.89,0-1.76,0-2.64s0-1.79,0-2.69c0-.4,0-.8.05-1.18,0-.18,0-.36,0-.54,0-1,0-2,0-3,0-1.24,0-2.53.08-3.79.08-.94.08-1.9.08-2.82,0-.46,0-.93,0-1.4,0-1,0-2,0-3A4.85,4.85,0,0,0,21.33.57Z"/><path class="a" d="M24.69,22.67l0-.19c.07-.47.15-1,.25-1.41l.12-.5a11.47,11.47,0,0,0,1.7-.14,8,8,0,0,1,2.3-.08c0,.14,0,.27.06.38s0,.17,0,.24c.06.62.11,1.21.2,1.83a.76.76,0,0,0,.72.64h.08a.7.7,0,0,0,.43-.16.74.74,0,0,0,.28-.52,3.24,3.24,0,0,0,0-.54c-.11-.69-.25-1.38-.39-2.11-.1-.49-.22-1-.31-1.58l-.67-4.76-.07-.52c-.23-1.73-.46-3.43-.66-5.16-.06-.47-.1-1-.15-1.43-.07-.7-.14-1.42-.24-2.13l0-.32a9,9,0,0,1-.15-2,2.82,2.82,0,0,0-.23-1l0-.1a.62.62,0,0,0-.41-.37.66.66,0,0,0-.57.07,1.69,1.69,0,0,0-.85,1.45q0,.52-.08,1c-.08,1-.16,2-.28,2.93s-.26,2-.4,2.94c-.1.7-.21,1.41-.3,2.12s-.24,1.6-.36,2.41-.29,1.9-.42,2.85l-.36,2.21c-.07.37-.13.74-.2,1.11s-.13.74-.2,1.1l-.25,1.32a.72.72,0,0,0,.59.9A.7.7,0,0,0,24.69,22.67Zm.6-3.74a3.88,3.88,0,0,1,.12-1.28c0-.22.09-.45.12-.67.08-.7.2-1.41.31-2.1.08-.47.15-.95.22-1.42s.11-.86.16-1.29c.1-.86.21-1.71.34-2.57.06-.35.13-.7.19-1s.14-.7.2-1.06.13-1,.19-1.5c0,.33.05.65.08,1s.05.67.08,1c.07.72.17,1.42.27,2.13.05.37.1.74.15,1.12.09.67.19,1.34.29,2s.22,1.55.33,2.32c.07.51.15,1,.23,1.53s.15,1,.22,1.46v.25L27.42,19l-.84.09a5.07,5.07,0,0,1-.87,0,1.44,1.44,0,0,1-.41-.14Z"/><path class="a" d="M37.41,1.6a.76.76,0,0,0,0-.72.77.77,0,0,0-.64-.37C36.39.48,36,.45,35.6.45h0c-.44,0-.89-.05-1.32-.09a14,14,0,0,0-3,0,.83.83,0,0,0-.7.32.83.83,0,0,0,.13.77,1.67,1.67,0,0,0,.16.18l.08.09.08.12h.14c.28,0,.54,0,.81-.08a3.37,3.37,0,0,1,1.37,0h0a.33.33,0,0,1,0,.12c.06,1.33.11,2.63.14,3.89,0,.4,0,.8,0,1.2a23.43,23.43,0,0,0,.19,3.65,6.34,6.34,0,0,1,0,1.75,15.71,15.71,0,0,0,0,3.05l0,.58c0,.5,0,1,0,1.53s0,1.17,0,1.73l-.08,2.35c0,.27,0,.54-.06.8s0,.49-.05.75a.72.72,0,0,0,.59.78l.16,0a.64.64,0,0,0,.38-.12.65.65,0,0,0,.26-.46,8.51,8.51,0,0,0,.17-1.47c0-.63,0-1.25,0-1.89s0-1.28,0-1.92c0-.21,0-.42,0-.63a7.7,7.7,0,0,0,0-1.33A18.72,18.72,0,0,1,35,12.56c0-.68,0-1.39,0-2.07,0-.32-.05-.63-.09-.95s-.09-.93-.11-1.39c0-1.51,0-3,0-4.59,0-.32,0-.63,0-1s0-.53,0-.79a4.89,4.89,0,0,1,1.88.25l.26.07Z"/><path class="a" d="M51.71,19.46a80.83,80.83,0,0,1,.08-8.5.93.93,0,0,0,0-.31s0-.08,0-.12c0-.81,0-1.6,0-2.38s0-1.53,0-2.29a6.32,6.32,0,0,0-.47-2.22,4.59,4.59,0,0,0-1.78-2A9.11,9.11,0,0,0,47.92.88,10.61,10.61,0,0,1,46.59.3a.54.54,0,0,0-.4,0,.56.56,0,0,0-.34.2l-.13.19a1.47,1.47,0,0,0-.38,1l0,.55c0,.58,0,1.12.1,1.7a14.84,14.84,0,0,1,.11,3.31l0,.64c0,1.07-.06,2.18,0,3.25v.1a27.61,27.61,0,0,1,.16,3.65,7.11,7.11,0,0,0,0,.81c0,.17,0,.34,0,.52s0,.37,0,.56c0,.38,0,.78,0,1.18s-.06.55-.09.81-.09.77-.11,1.15c0,.61,0,1.22-.06,1.81,0,.3,0,.61,0,.92a.46.46,0,0,0,.09.24.81.81,0,0,1,.07.13l.05.13.13,0,.17,0,.21,0,.1.07a1.31,1.31,0,0,0,.32.2,1,1,0,0,0,.34.07h.12a5.94,5.94,0,0,0,3.67-1.78A2.88,2.88,0,0,0,51.71,19.46Zm-1.4-.8v.9a1.47,1.47,0,0,1-.46,1.11A4.57,4.57,0,0,1,47,22l-.13,0a18.83,18.83,0,0,1,0-3.41A24.41,24.41,0,0,0,47,15.87c0-.29,0-.57,0-.86V13.57a11.29,11.29,0,0,0-.12-2.09A5.89,5.89,0,0,1,46.81,10a46.6,46.6,0,0,0-.06-6.57c0-.14,0-.29,0-.44a8.45,8.45,0,0,1,0-.86h0a1.36,1.36,0,0,1,.31.11,9,9,0,0,1,1.18.49,3.41,3.41,0,0,1,2.06,3.17c.05,1,.08,2,.11,3v.07c0,.2,0,.41,0,.62s0,.38,0,.56,0,.35,0,.51a5.36,5.36,0,0,1,0,.68c0,.47-.05.94-.09,1.4,0,.67-.09,1.37-.11,2.07C50.26,16.09,50.29,17.39,50.32,18.65Z"/><path class="a" d="M61.18,4a3.47,3.47,0,0,0-1.55-3A6.92,6.92,0,0,0,58,.32l-.12,0a1.22,1.22,0,0,0-1.52.33s.05-.06,0-.06a.81.81,0,0,0-.26.06,2.75,2.75,0,0,0-1.17,1,7.28,7.28,0,0,0-1.07,2.53c-.16,1-.28,2.05-.39,3.18a4.07,4.07,0,0,0,0,.8c0,.13,0,.26,0,.4a4.44,4.44,0,0,1,.05.6c0,.32,0,.64.06,1,0,.63.09,1.26.11,1.9.06,1.13.11,2.27.15,3.35,0,.79.06,1.54.1,2.24v2.85A2.76,2.76,0,0,0,55,22.53a4.42,4.42,0,0,0,2.7,1.16h.21a3.11,3.11,0,0,0,2.83-2.41,20.18,20.18,0,0,0,.54-4.14c.06-2.23,0-4.53,0-6.78C61.23,8.3,61.23,6.16,61.18,4ZM59.89,16.35a11.1,11.1,0,0,1-.16,2.52c-.06.4-.11.81-.15,1.21a3.2,3.2,0,0,1-1,1.93.8.8,0,0,1-.76.17,4.16,4.16,0,0,1-1.24-.31,1.83,1.83,0,0,1-1.17-1.79c0-.28,0-.56,0-.83,0-.55,0-1.1,0-1.66,0-.92-.05-1.83-.1-2.71,0-.44,0-.89-.07-1.34-.08-1.32-.17-2.68-.23-4.05a2,2,0,0,1,0-.27,2.44,2.44,0,0,0,0-.36,11.45,11.45,0,0,1,.31-4.61A3.7,3.7,0,0,1,56,2.56,1.36,1.36,0,0,1,56.83,2l.36-.14.43-.16.16,0h0l.3.15a5.61,5.61,0,0,1,.93.55,1.8,1.8,0,0,1,.74,1.51c0,.11,0,.23,0,.35a6.2,6.2,0,0,1,0,.67v0c0,.26,0,.51.05.77s.06.69.06,1c0,.94,0,1.89,0,2.74v2.89a13.44,13.44,0,0,1,0,2.42c0,.41,0,.83,0,1.24A1,1,0,0,0,59.89,16.35Z"/><path class="a" d="M67.14,23.35h.25a1,1,0,0,0,.33-.07l.14,0,0,0a1,1,0,0,1,.41,0l.12,0a.62.62,0,0,0,.22,0,.77.77,0,0,0,.68-.48,1.28,1.28,0,0,0,.15-.82.74.74,0,0,0-.78-.61H68.6l-.09,0a.91.91,0,0,1-.22,0l-.18,0a2.87,2.87,0,0,1-.91.1H66.14a.83.83,0,0,1-.21,0c-.35.05-.65.08-1,.11h-.1V17.36c0-.81,0-1.55.08-2.27a16,16,0,0,0,0-3.7,4.93,4.93,0,0,1,1.27-.19,3.49,3.49,0,0,1,.8.08l.14,0,.27,0c.71,0,.82-.69.89-1.19V10l-.13-.13a1.06,1.06,0,0,0-.79-.33H67l-.13,0c-.54,0-1.1.08-1.68.14l-.27,0V9.42c0-.47,0-1,0-1.41V6c0-.34,0-.63,0-.95V2a.46.46,0,0,1,.18,0h0l.17,0a4.06,4.06,0,0,0,.84,0h.67a4.16,4.16,0,0,1,1.35.18h.22a.81.81,0,0,0,.75-.69A.74.74,0,0,0,69,.91a.73.73,0,0,0-.5-.4l-.25,0L68,.45h-.14a6.56,6.56,0,0,1-.73,0A14.91,14.91,0,0,1,65.52.34h-.63l-.38,0A2.05,2.05,0,0,1,64,.45c-.34,0-.6.45-.64.73,0,.07,0,.15,0,.24s0,.16,0,.24v.08a.58.58,0,0,1,0,.17c0,.16,0,.33,0,.49s0,.35,0,.52c.05.76.08,1.63.08,2.45V6c0,1.79-.06,3.82.06,5.77a9,9,0,0,1,0,1.72c-.08,1-.14,2-.17,3.1v.68l-.06.64a7.37,7.37,0,0,0,0,.76,24.37,24.37,0,0,1-.1,3.47l0,.08v.2a1,1,0,0,0,.66.92,7.59,7.59,0,0,0,1,.09H65c.27,0,.54,0,.83-.05H66a7.89,7.89,0,0,1,1.16,0Z"/><path class="a" d="M76.57,15.16a14.91,14.91,0,0,0-.71-2.32,3,3,0,0,1-.13-.5c0-.12,0-.25-.09-.38l-.19-.64c-.13-.43-.25-.87-.4-1.31s-.23-.61-.35-.92-.24-.6-.35-.91l-.14-.37c-.17-.45-.34-.9-.5-1.37l-.29-.73c-.19-.48-.38-1-.55-1.44a2.65,2.65,0,0,1,0-1.67,1.25,1.25,0,0,1,.73-.81,1.41,1.41,0,0,1,1.21.06,1.49,1.49,0,0,1,.82,1.46,3.89,3.89,0,0,0,.06.84.75.75,0,0,0,.83.56.65.65,0,0,0,.58-.63,3.62,3.62,0,0,0-.36-2.25A2.57,2.57,0,0,0,74.86.37a4.72,4.72,0,0,0-1.6,0,2,2,0,0,0-1.62,1.22,4.14,4.14,0,0,0-.29,2.55A14.5,14.5,0,0,0,72,6.33c.31.87.68,1.81,1.15,2.87a30.71,30.71,0,0,1,1.21,3.6c.16.54.31,1.08.48,1.61a22.86,22.86,0,0,1,.86,4.37,6.31,6.31,0,0,1-.19,2.12,1,1,0,0,1-.22.43,5.83,5.83,0,0,1-1,.86,1.16,1.16,0,0,1-1.05.1,1.22,1.22,0,0,1-.8-.76,4.83,4.83,0,0,1-.1-1.86c0-.08,0-.16,0-.25a4.34,4.34,0,0,0,0-.62.67.67,0,0,0-.32-.46.71.71,0,0,0-.6,0,.92.92,0,0,0-.42.29l-.07.07v.1c0,.16,0,.32,0,.48s0,.61,0,.92c0,.54.07,1.05.12,1.58l0,.18a1.65,1.65,0,0,0,1.05,1.37l.15.08a1.44,1.44,0,0,0,.27.13,2.8,2.8,0,0,0,1.28.35A1.93,1.93,0,0,0,75,23.42l.29-.18a5.15,5.15,0,0,0,.51-.33,3.15,3.15,0,0,0,1.3-2.46,16.39,16.39,0,0,0-.43-4.72Z"/><path class="a" d="M91.83,3.68c.08-.29.15-.59.22-.88.14-.57.28-1.16.46-1.74a.65.65,0,0,0-.3-.78.69.69,0,0,0-.9.27,1.46,1.46,0,0,0-.13.47,7.46,7.46,0,0,0-.27,1.13c-.34,1.34-.67,2.69-1,4-.2.7-.38,1.38-.56,2.1l-.06.22a2.6,2.6,0,0,1-.17-.35l-.31-.6a27.5,27.5,0,0,1-1.38-2.95c-.15-.41-.31-.81-.47-1.22A16.88,16.88,0,0,1,86.15,1a.74.74,0,0,0-.31-.5.82.82,0,0,0-.66-.06L85,.53l0,.16a1.36,1.36,0,0,1,0,.14,1,1,0,0,0,0,.46l0,.12a5.41,5.41,0,0,0,.32,1.12l.16.39c.39,1,.77,1.92,1.17,2.84.59,1.26,1.18,2.47,1.77,3.67l.52.91c-.05.23-.09.45-.14.66s-.12.64-.21,1c-.11.76-.24,1.5-.42,2.29,0,.26-.1.53-.16.8-.13.65-.27,1.32-.35,2A19.6,19.6,0,0,1,87,19.56l-.28.94c-.2.64-.39,1.29-.56,1.92a1.54,1.54,0,0,0,0,.66.6.6,0,0,0,.53.64h.1a.71.71,0,0,0,.63-.41L88.35,20a3.51,3.51,0,0,0,.12-.6c.27-1.75.62-3.81,1.09-5.84l0-.17a4.57,4.57,0,0,0,.11-.56,26.77,26.77,0,0,1,.64-3.37c.1-.44.21-.89.3-1.32.24-1,.51-2,.78-3Z"/><path class="a" d="M101,4a3.47,3.47,0,0,0-1.55-3,6.92,6.92,0,0,0-1.66-.7l-.12,0a1.22,1.22,0,0,0-1.52.33s.05-.06,0-.06a.81.81,0,0,0-.26.06,2.75,2.75,0,0,0-1.17,1,7.28,7.28,0,0,0-1.07,2.53c-.17,1-.28,2.06-.39,3.18a4.07,4.07,0,0,0,0,.8c0,.13,0,.26,0,.4a4.44,4.44,0,0,1,.05.6c0,.32,0,.64.06,1,0,.63.09,1.26.11,1.9.06,1.13.11,2.27.15,3.35,0,.79.06,1.54.1,2.24v2.85a2.76,2.76,0,0,0,.94,2.11,4.42,4.42,0,0,0,2.7,1.16h.21a3.11,3.11,0,0,0,2.83-2.41,20.18,20.18,0,0,0,.54-4.14c.06-2.23,0-4.53,0-6.78C101.08,8.3,101.08,6.16,101,4ZM99.74,16.35a11.1,11.1,0,0,1-.16,2.52c-.06.4-.11.81-.15,1.21a3.2,3.2,0,0,1-1,1.93.8.8,0,0,1-.76.17,4.16,4.16,0,0,1-1.24-.31,1.83,1.83,0,0,1-1.17-1.79c0-.28,0-.56,0-.83,0-.55,0-1.1,0-1.66,0-.92-.05-1.83-.1-2.71,0-.44,0-.89-.07-1.34-.08-1.32-.17-2.68-.23-4.05a2,2,0,0,1,0-.27,2.44,2.44,0,0,0,0-.36,11.45,11.45,0,0,1,.31-4.61,3.7,3.7,0,0,1,.74-1.69A1.36,1.36,0,0,1,96.68,2L97,1.86l.43-.16.16,0h0l.3.15a5.61,5.61,0,0,1,.93.55,1.8,1.8,0,0,1,.74,1.51c0,.11,0,.23,0,.35a6.2,6.2,0,0,1,0,.67v0c0,.26,0,.51.05.77s.06.69.06,1c0,.94,0,1.89,0,2.74v2.89a13.44,13.44,0,0,1,0,2.42c0,.41,0,.83,0,1.24A1,1,0,0,0,99.74,16.35Z"/><path class="a" d="M103.36,18.68c0,.48,0,1,0,1.46a3.14,3.14,0,0,0,.55,1.82l.11.18a3.16,3.16,0,0,0,.27.4,2.88,2.88,0,0,0,2.25,1.27h.16a2.8,2.8,0,0,1,.66,0,2.31,2.31,0,0,0,1.73-.7,3.54,3.54,0,0,0,1-2.61,20,20,0,0,1,.08-2.26,47.3,47.3,0,0,0,.25-5.32c0-.73,0-1.49,0-2.23,0-.51,0-1,0-1.52,0-1.18,0-2.37,0-3.55s0-2.35,0-3.5a3.25,3.25,0,0,0,0-.54A.68.68,0,0,0,109,1.46a2.31,2.31,0,0,0,0,.79c.05,2,.11,4.23.14,6.44,0,1,0,2,0,3l0,1c0,.16,0,.32,0,.49s0,.31,0,.49a6.78,6.78,0,0,1,.05.71l0,.35c0,.79-.1,1.64-.17,2.44,0,.35-.07.69-.12,1a15.43,15.43,0,0,0-.17,2.59,1.4,1.4,0,0,1-.44,1.16,2,2,0,0,1-2,.38,2.18,2.18,0,0,1-1.33-1.37,4.29,4.29,0,0,1-.29-1.64c0-.93,0-1.9.06-2.82.05-1.13,0-2.27,0-3.38,0-.7,0-1.4,0-2.1,0-1,0-2-.08-3a58.28,58.28,0,0,1,0-5.85,5.25,5.25,0,0,0,0-.64c0-.1,0-.19,0-.3a.71.71,0,0,0-.75-.76,1.1,1.1,0,0,0-.44.16l.11.23-.11-.22-.14.07V2.36c0,.79,0,1.57,0,2.36,0,1.55,0,3.15.07,4.7.1,3.08.14,5.55.11,7.77C103.36,17.69,103.36,18.19,103.36,18.68Z"/><path class="a" d="M119.55,22.59a2.07,2.07,0,0,0-.2-.41,14.31,14.31,0,0,1-1.27-3.34,8.12,8.12,0,0,0-.29-.9c-.55-1.29-1.07-2.58-1.6-3.88l0-.07a3.37,3.37,0,0,1-.36-1.74l.08-.07c.4-.35.85-.75,1.29-1.09a3.1,3.1,0,0,0,1.18-1.76,9.77,9.77,0,0,0,.09-4.4,5.41,5.41,0,0,0-2.33-3.84l-.32-.2a6.13,6.13,0,0,0-.73-.41,3.14,3.14,0,0,0-1-.21h0a1,1,0,0,0-.8.41.92.92,0,0,0-.06.8,9.33,9.33,0,0,1,.19,2.76c0,.2,0,.39,0,.58s0,.37,0,.56q0,.81,0,1.63c0,1.09,0,2.18,0,3.27,0,1.69-.11,3.35-.19,5.11v.13c0,.31,0,.63,0,.94a16.45,16.45,0,0,0,0,1.94,22.34,22.34,0,0,1,0,3c0,.27,0,.55-.06.82s0,.5-.05.75v.15l.13.08c.41.26.74.46,1,.2a1.56,1.56,0,0,0,.3-.58,1.32,1.32,0,0,0,.07-.5c0-.51,0-1,.05-1.55a11.79,11.79,0,0,0-.06-2.78,2.42,2.42,0,0,1,0-.73,17.27,17.27,0,0,0,.11-3.22.75.75,0,0,1,0-.3l.1.23c.11.27.22.51.34.76A28,28,0,0,1,116.68,19a32.51,32.51,0,0,0,1.41,4,1.29,1.29,0,0,0,1,.82h.19l.08-.14c.25-.42.35-.59.22-.86ZM114.61,1.84a2.55,2.55,0,0,1,1.76,1.33,5.64,5.64,0,0,1,.73,2,11.23,11.23,0,0,1,0,3.58,1.91,1.91,0,0,1-.67,1.23l-.89.75-.82.7q0-.7,0-1.39c0-1.13,0-2.24,0-3.37C114.77,5.08,114.69,3.5,114.61,1.84Z"/><path class="a" d="M127.84,18.87c0,.53.05,1.07,0,1.6a2.79,2.79,0,0,0,.8,2,3.48,3.48,0,0,0,2.52,1.24l.32,0a2.34,2.34,0,0,0,2.09-1.89,3.83,3.83,0,0,0,.09-.49,3.31,3.31,0,0,1,.08-.44,6.36,6.36,0,0,0,.13-1.07,4.08,4.08,0,0,1,.25-1.36.72.72,0,0,0-.06-.66.85.85,0,0,0-.62-.41.61.61,0,0,0-.49.09.9.9,0,0,0-.35.63c0,.21,0,.43,0,.64,0,.47-.06.92-.12,1.36a8.48,8.48,0,0,1-.13,1.23c-.16.55-.39.8-.84.89a2.09,2.09,0,0,1-.86-.1,2,2,0,0,1-1.4-1.9,6.53,6.53,0,0,1-.08-1.08c0-.4,0-.8,0-1.2s0-.8,0-1.21c0-.62,0-1.24,0-1.86a26.81,26.81,0,0,1,0-3.73c.05-1,.08-1.92.11-3.06,0-.26,0-.53,0-.81a12.83,12.83,0,0,0,0-1.94A9.23,9.23,0,0,1,129.55,3a1,1,0,0,1,.34-.63l.16-.14a3,3,0,0,1,.32-.26,1,1,0,0,1,1.29,0,2,2,0,0,1,.7,1.49c0,.34,0,.68,0,1.09a.72.72,0,0,0,.26.49.7.7,0,0,0,.52.15.64.64,0,0,0,.61-.72,13.07,13.07,0,0,0-.09-1.82A3.16,3.16,0,0,0,133,1.17L132.83,1a1.86,1.86,0,0,0-1-.65,3,3,0,0,0-2.41.49A2.82,2.82,0,0,0,128.1,3c0,.2,0,.39-.07.57s-.06.36-.07.56,0,.55,0,.82,0,.74,0,1.08,0,.85,0,1.28c0,.61,0,1.25,0,1.88s-.06,1.53-.07,2.27c0,.37,0,.75,0,1.13,0,1.37,0,2.75,0,4.21,0,.45,0,.88,0,1.32h-.05Z"/><path class="a" d="M141.93,21.93a1,1,0,0,0-.37-.14c-.3-.06-.6-.09-.88-.12a7.5,7.5,0,0,0-2.14.18l-.14,0a.92.92,0,0,1-.64,0V21c-.05-1.21-.08-2.42-.11-3.63v-.06c0-.44,0-.87-.06-1.31s0-.87-.06-1.3c0-.28,0-.55,0-.82a14.27,14.27,0,0,1,.05-2.64,13.52,13.52,0,0,0,.2-3,14.6,14.6,0,0,1,0-2.45c.08-1.52,0-3.08,0-4.62a1,1,0,0,0-.27-.75,1.12,1.12,0,0,0-.92-.07l-.2,0V.62a1.4,1.4,0,0,1,0,.15,2.33,2.33,0,0,0,0,.25c0,.38,0,.77,0,1.15s0,.76,0,1.14l.08,5.26c0,.44,0,.91-.06,1.39s-.05.87-.09,1.3c-.05.69-.11,1.4-.11,2.11s0,1.36.07,2c0,1.06.1,2.16.07,3.24v.11c0,.4,0,.8,0,1.2a9.68,9.68,0,0,1-.15,2.61.83.83,0,0,0,.22.75.79.79,0,0,0,.57.26h.11l1.56-.33a3.92,3.92,0,0,1,2.11,0,1,1,0,0,0,.53.11,1.25,1.25,0,0,0,.6-.14.72.72,0,0,0,.38-.57A.75.75,0,0,0,142,22Z"/><path class="a" d="M143.6,22.53a4.42,4.42,0,0,0,2.7,1.16h.21a3.11,3.11,0,0,0,2.83-2.41,20.18,20.18,0,0,0,.54-4.14c.06-2.23,0-4.53,0-6.78,0-2.07,0-4.2-.06-6.33a3.47,3.47,0,0,0-1.55-3,6.92,6.92,0,0,0-1.66-.7l-.12,0A1.22,1.22,0,0,0,145,.62s.05-.06,0-.06a.81.81,0,0,0-.26.06,2.75,2.75,0,0,0-1.17,1,7.28,7.28,0,0,0-1.07,2.53c-.16,1-.28,2.05-.39,3.18a4.07,4.07,0,0,0,0,.8c0,.13,0,.26,0,.4a4.44,4.44,0,0,1,.05.6c0,.32,0,.64.06,1,0,.63.09,1.26.11,1.9.06,1.13.11,2.27.15,3.35,0,.79.06,1.54.1,2.24v2.85A2.76,2.76,0,0,0,143.6,22.53Zm4.82-17.58c0,.26,0,.51.05.77s.06.69.06,1c0,.94,0,1.89,0,2.74v2.89a13.44,13.44,0,0,1,0,2.42c0,.41,0,.83,0,1.24a1,1,0,0,0,0,.33,11.1,11.1,0,0,1-.16,2.52c-.06.4-.11.81-.15,1.21a3.2,3.2,0,0,1-1,1.93.8.8,0,0,1-.76.17,4.16,4.16,0,0,1-1.24-.31A1.83,1.83,0,0,1,144,20.08c0-.28,0-.56,0-.83,0-.55,0-1.1,0-1.66,0-.92-.05-1.83-.1-2.71,0-.44,0-.89-.07-1.34-.08-1.32-.17-2.68-.23-4.05a2,2,0,0,1,0-.27,2.44,2.44,0,0,0,0-.36,11.45,11.45,0,0,1,.31-4.61,3.7,3.7,0,0,1,.74-1.69,1.36,1.36,0,0,1,.83-.56l.36-.14.43-.16.16,0h0l.3.15a5.61,5.61,0,0,1,.93.55,1.8,1.8,0,0,1,.74,1.51c0,.11,0,.23,0,.35a6.2,6.2,0,0,1,0,.67v0Z"/><path class="a" d="M157.74.51c-.42,0-.83-.06-1.21-.06h0c-.44,0-.88-.05-1.32-.09a14.15,14.15,0,0,0-3,0,.83.83,0,0,0-.7.32.83.83,0,0,0,.13.77,1.82,1.82,0,0,0,.16.18l.08.09.08.12h.14c.28,0,.54,0,.81-.08a3.37,3.37,0,0,1,1.37,0h0a.32.32,0,0,1,0,.12c.06,1.32.11,2.61.14,3.89,0,.4,0,.79,0,1.19a23.25,23.25,0,0,0,.19,3.65,6.32,6.32,0,0,1,0,1.75,15.71,15.71,0,0,0,0,3.05l0,.58c0,.5,0,1,0,1.53s0,1.17,0,1.73l-.08,2.35c0,.27,0,.54-.06.8s0,.49-.05.75a.72.72,0,0,0,.59.78l.16,0a.63.63,0,0,0,.64-.58,8.46,8.46,0,0,0,.17-1.47c0-.63,0-1.25,0-1.89s0-1.28,0-1.92c0-.21,0-.42,0-.63a7.65,7.65,0,0,0,0-1.33,19.06,19.06,0,0,1-.05-3.54c0-.68,0-1.39,0-2.07,0-.31-.05-.63-.08-.94s-.09-.94-.11-1.4c0-1.51,0-3,0-4.59,0-.32,0-.63,0-1s0-.53,0-.79a4.88,4.88,0,0,1,1.88.25l.26.07.44-.53a.75.75,0,0,0,0-.72A.77.77,0,0,0,157.74.51Z"/><path class="a" d="M167.15.57A.66.66,0,0,0,166.4,0a.73.73,0,0,0-.56.86,2.17,2.17,0,0,0,0,.37,1.75,1.75,0,0,1,0,.34C166,2.77,166,4,166,5.14l0,.52a19.87,19.87,0,0,1,0,2c-.13,1.86-.14,3.74-.14,5.56,0,.92,0,1.83,0,2.74l-.08,1.59c-.26.26-.42.29-.55.28a10.43,10.43,0,0,0-2.31-.06l-.65,0h-.07a.65.65,0,0,1-.56-.11c0-.66,0-1.33,0-2a20,20,0,0,1,0-2.13c.09-1.28.09-2.57.08-3.83,0-.64,0-1.28,0-1.93V3.14c0-.6,0-1.21,0-1.83V1.18a2.44,2.44,0,0,0-.13-.68.69.69,0,0,0-.32-.38.59.59,0,0,0-.47,0,.59.59,0,0,0-.47.77c0,.28.06.56.11.85s.1.72.12,1.07,0,.78,0,1.19,0,.64,0,1V6.25c0,.59,0,1.17,0,1.75,0,.3,0,.61,0,.91,0,1.17,0,2.32,0,3.5,0,.5,0,1-.05,1.48a9.29,9.29,0,0,0,0,2.52,13.31,13.31,0,0,1-.08,3.3c-.11.82-.17,1.65-.22,2.44a2.84,2.84,0,0,0,.1.92.62.62,0,0,0,.49.4.65.65,0,0,0,.57-.28,1.23,1.23,0,0,0,.17-.57l0-.14c0-.35,0-.69,0-1s0-.66,0-1a4.31,4.31,0,0,1,.19-1.19,11.26,11.26,0,0,1,4,.09,11.88,11.88,0,0,1,0,2v.13c0,.55,0,1.07,0,1.59a.64.64,0,0,0,.47.72l.14,0a.69.69,0,0,0,.4-.13.71.71,0,0,0,.29-.49,4.88,4.88,0,0,0,0-.65c0-.89,0-1.78,0-2.66s0-1.77,0-2.66c0-.4,0-.8.05-1.18,0-.18,0-.36,0-.54,0-1,0-2,0-3,0-1.24,0-2.53.08-3.79.08-.95.08-1.9.08-2.83,0-.46,0-.92,0-1.39,0-1,0-2,0-3A4.83,4.83,0,0,0,167.15.57Z"/><path class="a" d="M172,4.62a5.33,5.33,0,0,0-.06-1,1.16,1.16,0,0,0-.38-.67.72.72,0,0,0-.58-.1.66.66,0,0,0-.44.36.68.68,0,0,0,0,.4,15.26,15.26,0,0,1,.17,2.5c0,.38,0,.73,0,1,0,.64,0,1.36,0,2.06s0,1.44,0,2.09a30.62,30.62,0,0,1-.11,4.81l-.05.61a23.22,23.22,0,0,0-.12,2.78c0,1.37.06,2.48.06,3.41v.17l.16.06.13.06a1.1,1.1,0,0,0,.29.12.87.87,0,0,0,.23,0,.65.65,0,0,0,.37-.11.65.65,0,0,0,.27-.49,3.58,3.58,0,0,0,0-.58c0-.29,0-.62,0-1,0-.56-.06-1.15-.06-1.63s0-.68,0-.95c0-.45,0-.79,0-1.14s.05-.83.09-1.28c.06-.74.12-1.5.13-2.29,0-1.41,0-3.73-.06-5.64Z"/><path class="a" d="M171.13,2.1a.77.77,0,0,0,.57-.25,1,1,0,0,0,.24-.73.72.72,0,0,0-.85-.58.85.85,0,0,0-.8.75A.92.92,0,0,0,171.13,2.1Z"/><path class="a" d="M179.31,17a9.65,9.65,0,0,1,.26,1c.2.88.39,1.76.58,2.65q.24,1.1.48,2.2c.16.69.39.82.94.82h.4l.06-.14a2.24,2.24,0,0,0,.16-1.14,4.94,4.94,0,0,1,0-1.38,9.73,9.73,0,0,0,.13-1.68c0-.18,0-.36,0-.54l.11-1.59c0-.3.05-.61.05-.95V13.71l0-.52a36.62,36.62,0,0,0,0-4.74c0-.85,0-1.73,0-2.58,0-.53,0-1.06,0-1.58s0-1.26,0-1.89c0-.31,0-.63,0-.95a1.2,1.2,0,0,0-.11-.62.74.74,0,0,0-.59-.39h-.08a1.13,1.13,0,0,0-.51.45,1.12,1.12,0,0,0,0,.48v.13c.09,1.51.08,3,.06,4.07,0,.64,0,1.29,0,1.92s0,1,0,1.56c0,1.33,0,2.67-.06,3.86,0,.18,0,.37,0,.57s0,.45,0,.68,0,.66,0,1c0,.63,0,1.28-.06,1.92s-.05,1.22-.09,1.81c-.19-1-.45-2.12-.79-3.41l0-.06h0c-.09-.43-.18-.86-.27-1.3-.17-.85-.35-1.73-.57-2.58-.39-1.43-.73-3-1-4.65a44.7,44.7,0,0,0-1.28-5.08l-.23-.8a.67.67,0,0,0-.14-.34,1,1,0,0,1-.08-.13L176.57.4l-.8.12a.64.64,0,0,0-.49.61c0,.26,0,.52,0,.77,0,.51,0,1,.06,1.53s.1,1.18.16,1.77a35.61,35.61,0,0,1,.23,3.94c0,.47,0,.94-.06,1.41s0,.94-.06,1.42c0,1.18-.05,2.41-.19,3.63a9.35,9.35,0,0,0-.12,1.58c0,1.77,0,3.59,0,5.35a1.6,1.6,0,0,0,.07.41l0,.2.06.26.25-.07.18,0a1,1,0,0,0,.48-.12,1,1,0,0,0,.36-.82,1.76,1.76,0,0,0,0-.29,1.29,1.29,0,0,1,0-.22c0-.45,0-.9,0-1.35a48.31,48.31,0,0,1,.09-6.15c.12-1.13.14-2.29.16-3.42v-.66a22.92,22.92,0,0,0-.06-3.71c0-.27,0-.54-.05-.82.11.51.22,1,.35,1.65.32,1.46.62,2.91.93,4.37s.62,3,.95,4.45C179.15,16.51,179.23,16.78,179.31,17Z"/><path class="a" d="M191.5,8.68l-.06,0h-.07c-.93-.06-1.84-.11-2.76-.14a2.18,2.18,0,0,0-.46,0,.77.77,0,0,0-.62.75.87.87,0,0,0,.75.75,1.5,1.5,0,0,0,.36-.05l.15,0a4.27,4.27,0,0,1,1.6.1.5.5,0,0,1,0,.22c.08,2.95.14,5.08-.06,8.55,0,.33,0,.58,0,.81a7.34,7.34,0,0,1-.08,1.38,1.5,1.5,0,0,1-.12.66,2.07,2.07,0,0,1-.41.66h0a5,5,0,0,1-1.39-.16L188,22.1a1,1,0,0,1-.41-.21,2.72,2.72,0,0,1-1.1-2.17c0-.53,0-1.07-.06-1.6,0-.27,0-.55,0-.82V15.64l0-.87c0-.84-.09-1.71-.09-2.57,0-.33,0-.67,0-1a13.89,13.89,0,0,0-.11-2.29.56.56,0,0,1,0-.27c0-.44,0-.88,0-1.33s0-.88,0-1.31c.09-.92.2-1.84.34-2.74A1.5,1.5,0,0,1,187.38,2a2.6,2.6,0,0,1,2.33.12,1.17,1.17,0,0,1,.61,1,3.52,3.52,0,0,0,0,.79.72.72,0,0,0,.33.48.78.78,0,0,0,.51.16.69.69,0,0,0,.67-.73v-.2a3.49,3.49,0,0,0-.09-1.07A3.14,3.14,0,0,0,188.4.28l-.1,0a1.41,1.41,0,0,1-.3,0,2.63,2.63,0,0,0-2.41,1.5A4.38,4.38,0,0,0,185.16,3l-.22,1.64v.07a5.64,5.64,0,0,0-.1.95V8.79a3.3,3.3,0,0,0,.06.86,11,11,0,0,1,.11,2V12c0,.33,0,.69,0,1s0,.72,0,1.06c0,.52,0,1,0,1.57,0,1,0,2.06.06,3.13a9.75,9.75,0,0,0,.37,2.39,3.16,3.16,0,0,0,2.36,2.45,4.27,4.27,0,0,0,1.09.11,5.63,5.63,0,0,1,.71,0h.06c1.15-.16,1.38-.67,1.78-1.56a1.75,1.75,0,0,0,.19-.74c0-.08,0-.17,0-.27a12.26,12.26,0,0,0,.12-2.06v-.44c0-1.27,0-2.36,0-3.34s0-1.82,0-2.7,0-2,0-3A1,1,0,0,0,191.5,8.68Z"/><path class="a" d="M204.88,22.91a3.15,3.15,0,0,0,1.31-2.46,16.41,16.41,0,0,0-.43-4.72l-.14-.57a15.1,15.1,0,0,0-.71-2.32,2.84,2.84,0,0,1-.13-.5c0-.12-.05-.25-.09-.38l-.18-.63c-.13-.44-.25-.88-.41-1.32s-.24-.62-.36-.93-.23-.59-.34-.9l-.15-.38c-.17-.45-.34-.89-.5-1.35l-.28-.72c-.19-.48-.38-1-.55-1.45a2.63,2.63,0,0,1,0-1.67,1.24,1.24,0,0,1,.73-.8,1.41,1.41,0,0,1,1.21.06,1.49,1.49,0,0,1,.82,1.46,3.92,3.92,0,0,0,.06.84.75.75,0,0,0,.83.56.65.65,0,0,0,.58-.63,3.62,3.62,0,0,0-.36-2.25A2.57,2.57,0,0,0,203.91.37a4.74,4.74,0,0,0-1.6,0,2,2,0,0,0-1.62,1.22,4.14,4.14,0,0,0-.29,2.55,14.3,14.3,0,0,0,.68,2.15c.31.87.68,1.81,1.15,2.87a30.81,30.81,0,0,1,1.21,3.59c.16.54.32,1.08.49,1.62a23,23,0,0,1,.86,4.37,6.3,6.3,0,0,1-.19,2.12,1,1,0,0,1-.22.43,5.85,5.85,0,0,1-1,.86,1.16,1.16,0,0,1-1.05.1,1.22,1.22,0,0,1-.8-.76,4.86,4.86,0,0,1-.1-1.86c0-.08,0-.16,0-.25a4.26,4.26,0,0,0,0-.62.67.67,0,0,0-.32-.46.71.71,0,0,0-.6,0,.92.92,0,0,0-.42.29l.17.18-.18-.18-.07.07v.1c0,.16,0,.32,0,.48s0,.61,0,.92c0,.54.08,1.06.13,1.6l0,.16a1.65,1.65,0,0,0,1,1.37l.15.08a1.47,1.47,0,0,0,.27.13,2.81,2.81,0,0,0,1.28.35,1.92,1.92,0,0,0,1.24-.45l.29-.18A4.92,4.92,0,0,0,204.88,22.91Z"/><path class="a" d="M214.39,23.43h.07a.7.7,0,0,0,.43-.16.74.74,0,0,0,.28-.52,3.23,3.23,0,0,0,0-.54c-.11-.68-.24-1.36-.38-2l0-.08c-.12-.59-.22-1.08-.3-1.58l-.67-4.76-.06-.45c-.23-1.75-.46-3.48-.67-5.23-.06-.47-.1-.95-.15-1.43-.07-.7-.14-1.43-.24-2.14l0-.32a8.92,8.92,0,0,1-.15-2,2.81,2.81,0,0,0-.23-1l0-.1a.62.62,0,0,0-.41-.37.66.66,0,0,0-.57.07,1.68,1.68,0,0,0-.85,1.45c0,.34-.06.69-.08,1-.08,1-.16,2-.28,2.93s-.26,2-.4,3c-.1.7-.2,1.41-.3,2.11s-.24,1.6-.36,2.41-.29,1.9-.42,2.85l-.36,2.21c-.07.37-.13.74-.2,1.11s-.13.74-.2,1.1l-.25,1.33a.72.72,0,0,0,.59.9.7.7,0,0,0,.88-.6l0-.2c.07-.47.15-1,.24-1.41l.12-.5a11.4,11.4,0,0,0,1.7-.14,7.88,7.88,0,0,1,2.3-.08c0,.14,0,.26.05.38s0,.17,0,.24c.06.62.11,1.21.2,1.83a.76.76,0,0,0,.72.64Zm-1.31-4.87v.25l-1.36.14-.85.09a4.84,4.84,0,0,1-.87,0,1.44,1.44,0,0,1-.41-.14h0a3.85,3.85,0,0,1,.12-1.28c0-.23.09-.45.12-.68.08-.7.2-1.41.31-2.11.08-.47.15-.94.22-1.42s.11-.86.16-1.29c.11-.86.21-1.71.34-2.57.06-.35.13-.7.2-1s.14-.7.2-1.05.13-1,.19-1.5c0,.33.05.65.08,1s.05.67.08,1c.07.71.17,1.41.27,2.12.05.38.1.76.15,1.14.09.66.19,1.32.28,2s.23,1.56.33,2.35c.07.51.15,1,.23,1.54S213,18.11,213.08,18.57Z"/><path class="a" d="M222.93.28a.69.69,0,0,0-.9.27,1.5,1.5,0,0,0-.13.47,7.36,7.36,0,0,0-.27,1.13c-.34,1.34-.67,2.69-1,4-.19.69-.37,1.36-.56,2.07l-.07.25a2.59,2.59,0,0,1-.17-.35l-.31-.6a27.57,27.57,0,0,1-1.39-3c-.15-.41-.31-.81-.47-1.22A17,17,0,0,1,216.88,1a.74.74,0,0,0-.31-.5.83.83,0,0,0-.66-.06l-.16,0,0,.16s0,.09,0,.14a1,1,0,0,0,0,.46l0,.12A5.47,5.47,0,0,0,216,2.53l.18.45c.39,1,.75,1.88,1.14,2.79.58,1.25,1.17,2.45,1.75,3.64l.24-.08-.22.11.52.91c-.05.23-.09.46-.14.67s-.12.63-.21,1c-.11.76-.25,1.51-.42,2.29,0,.26-.1.53-.16.81-.13.65-.27,1.32-.35,2a19.42,19.42,0,0,1-.55,2.51l-.28.94c-.19.64-.39,1.29-.56,1.92a1.56,1.56,0,0,0,0,.66.6.6,0,0,0,.53.64h.1a.71.71,0,0,0,.63-.41l.11-.44.45-1.54.39-1.34a3.43,3.43,0,0,0,.12-.6c.27-1.75.62-3.81,1.09-5.84l0-.17a4.66,4.66,0,0,0,.11-.56,26.72,26.72,0,0,1,.64-3.37c.1-.44.21-.89.3-1.32.25-1,.51-2,.79-3l.39-1.47c.07-.29.14-.58.22-.87.14-.58.29-1.17.46-1.75A.65.65,0,0,0,222.93.28Z"/><path class="a" d="M10.6,63.55c-.14-.68-.29-1.39-.4-2.09l-.89-6.29-.1-.79c-.29-2.2-.59-4.47-.86-6.72-.07-.63-.14-1.26-.2-1.89C8.06,44.84,8,43.89,7.83,43l-.06-.43a11.84,11.84,0,0,1-.19-2.6,3.66,3.66,0,0,0-.3-1.25l0-.14a.74.74,0,0,0-.49-.44.8.8,0,0,0-.69.09A2.13,2.13,0,0,0,5,40c0,.45-.07.9-.11,1.36-.1,1.28-.21,2.6-.37,3.89S4.14,47.9,4,49.17c-.14.93-.27,1.87-.4,2.81s-.31,2.11-.47,3.18c-.19,1.26-.38,2.52-.56,3.77L2,61.85c-.09.48-.18,1-.26,1.47s-.17,1-.26,1.46l-.33,1.75a.87.87,0,0,0,.72,1.1A.85.85,0,0,0,3,66.89l0-.25c.1-.62.2-1.27.33-1.88L3.52,64a15.19,15.19,0,0,0,2.3-.18,10.5,10.5,0,0,1,3.12-.09c0,.21.05.4.08.57s0,.22,0,.32c.07.8.15,1.58.26,2.41a.92.92,0,0,0,.88.77h.09a.85.85,0,0,0,.52-.19.9.9,0,0,0,.34-.62,4.25,4.25,0,0,0,0-.71C11,65.42,10.79,64.49,10.6,63.55Zm-2-2.06v.4l-1.9.2-1.09.11a6.44,6.44,0,0,1-1.17,0,2,2,0,0,1-.57-.2l-.05,0a5.06,5.06,0,0,1,.16-1.76c.06-.3.12-.59.16-.88.11-.93.26-1.87.41-2.79.1-.62.2-1.24.29-1.87S4.94,53.57,5,53c.14-1.11.28-2.26.45-3.39.07-.46.17-.92.26-1.38s.19-.93.26-1.4c.12-.84.21-1.65.31-2.6l0-.18c.07.71.12,1.41.18,2.1,0,.44.07.88.11,1.33.1.95.23,1.89.35,2.81.07.49.14,1,.2,1.49.12.86.25,1.74.37,2.61.15,1,.3,2.08.44,3.12.09.67.19,1.34.3,2S8.46,60.86,8.55,61.49Z"/><path class="a" d="M17.75,38.69a10.07,10.07,0,0,1-.94-.52L16.5,38c-.26-.13-.5-.28-.76-.44l-.45-.28-.22.19c-1.2,1-1.3,1.11-1.3,2.52,0,1.71,0,3.4.07,5,0,.64.05,1.28.09,1.92.06.92.11,1.87.09,2.81s0,2.12,0,3.16a43.54,43.54,0,0,1-.22,6.18,6.73,6.73,0,0,0,0,.84,46.89,46.89,0,0,1-.29,5.12c-.19,1.64-.12,1.76.94,2.78l.06.06a.63.63,0,0,0,.28.15l.14,0,.08,0,.09,0,.1,0a1.25,1.25,0,0,0,.44-.14c1.22-.53,2.33-1.05,3.52-1.65a3.53,3.53,0,0,0,.54-.49l.17-.18a3,3,0,0,0,.62-1.87l.11-5.39c0-.36,0-.73,0-1.09,0-.17,0-.35,0-.52a1.93,1.93,0,0,0-.45-1.26,3.45,3.45,0,0,0-1.45-1.27,2.63,2.63,0,0,1-.54-.32L18,53.82l.16-.16a5.94,5.94,0,0,0,2.28-4,16.21,16.21,0,0,0,.15-2.8c0-.4,0-.81,0-1.24v-.37a13.63,13.63,0,0,0-.23-3.09A4.82,4.82,0,0,0,17.75,38.69Zm-2,16.37h0a1,1,0,0,1,.53,0,14.91,14.91,0,0,1,1.85.95,1.4,1.4,0,0,1,.66,1.29c0,1,0,1.87,0,2.82v2.78a5.26,5.26,0,0,1-.11,1.1,1.47,1.47,0,0,1-.8,1.09,14.75,14.75,0,0,1-2.68,1.06c-.22-.19-.21-.43-.17-.77.22-1.87.32-3.78.4-5.63C15.56,58.17,15.63,56.59,15.79,55.06Zm.7-2.42-.7.41a1.4,1.4,0,0,1-.12-1,13.61,13.61,0,0,0,0-3.06c0-.45-.07-.9-.08-1.35,0-2.37,0-4.77,0-7.1a2,2,0,0,1,.18-1,9.85,9.85,0,0,1,2,1.23,3.63,3.63,0,0,1,1,2.89c0,1.78,0,3.5,0,5.24A6.05,6.05,0,0,1,18.24,51a3.09,3.09,0,0,1-1,1.17C17,52.36,16.74,52.5,16.49,52.64Z"/><path class="a" d="M33.8,42.28a4.51,4.51,0,0,0-2-3.91,9.05,9.05,0,0,0-2.17-.91l-.16,0a1.5,1.5,0,0,0-1.87.35h-.1a1,1,0,0,0-.31.07,3.51,3.51,0,0,0-1.51,1.28,9.54,9.54,0,0,0-1.4,3.31c-.22,1.38-.36,2.71-.52,4.2a5.34,5.34,0,0,0,.06,1c0,.17,0,.34.06.53a6,6,0,0,1,.07.79c0,.42.05.84.08,1.25.06.82.12,1.68.14,2.52.09,1.5.15,3,.2,4.45,0,1,.08,2,.13,2.95v3.77a3.58,3.58,0,0,0,1.22,2.73,5.77,5.77,0,0,0,3.52,1.51h.27a4,4,0,0,0,3.66-3.12,26.49,26.49,0,0,0,.71-5.46c.07-3,0-6,0-9C33.88,47.92,33.88,45.09,33.8,42.28ZM32.27,58.55a15,15,0,0,1-.21,3.36c-.07.53-.15,1.06-.19,1.59a4.3,4.3,0,0,1-1.38,2.6,1.12,1.12,0,0,1-1.08.25,5.56,5.56,0,0,1-1.67-.42,2.5,2.5,0,0,1-1.59-2.44c0-.37,0-.74,0-1.1,0-.72,0-1.46,0-2.19,0-1.22-.07-2.42-.13-3.58,0-.59-.07-1.17-.09-1.77-.11-1.74-.22-3.55-.3-5.35a2.64,2.64,0,0,1,0-.37,3.17,3.17,0,0,0,0-.45A15.19,15.19,0,0,1,26,42.55a5,5,0,0,1,1-2.26,1.87,1.87,0,0,1,1.14-.76l.48-.18c.19-.08.39-.16.58-.22a1,1,0,0,1,.22,0h.08l.39.2A7.4,7.4,0,0,1,31.1,40a2.46,2.46,0,0,1,1,2.06c0,.15,0,.3,0,.46a8.45,8.45,0,0,1,0,.89v0c0,.34,0,.68.07,1s.08.92.08,1.35c0,1.23,0,2.5,0,3.62v3.81a17.87,17.87,0,0,1,0,3.21c0,.55,0,1.09,0,1.64A1.37,1.37,0,0,0,32.27,58.55Z"/><path class="a" d="M46.2,39.73a4.26,4.26,0,0,0,0-.7.8.8,0,0,0-.69-.73.83.83,0,0,0-.91.6,3,3,0,0,0,0,1c.07,2.47.15,5.55.19,8.51,0,1.27,0,2.6,0,3.89,0,.44,0,.88,0,1.32,0,.21,0,.42,0,.64s0,.42,0,.65a8.85,8.85,0,0,1,.07,1l0,.54c-.06,1-.13,2.12-.23,3.15,0,.46-.1.91-.15,1.36a20.33,20.33,0,0,0-.22,3.41A1.93,1.93,0,0,1,43.5,66a2.74,2.74,0,0,1-2.76.51,3,3,0,0,1-1.81-1.86,5.75,5.75,0,0,1-.39-2.2c0-1.23,0-2.51.07-3.73.07-1.49,0-3,0-4.46,0-.92-.05-1.84-.05-2.77,0-1.31-.06-2.64-.1-3.92a77.28,77.28,0,0,1,0-7.74,6.51,6.51,0,0,0,0-.84c0-.13,0-.25,0-.39a.86.86,0,0,0-.92-.93,1.41,1.41,0,0,0-.55.21l.1.23L37,37.84l-.14.07v2.16c0,1,0,2.09,0,3.13,0,2,0,4.15.09,6.2.13,4.07.18,7.33.15,10.27,0,.67,0,1.32,0,2s0,1.28,0,1.93a4.07,4.07,0,0,0,.71,2.36l.15.25a4,4,0,0,0,.34.51,3.73,3.73,0,0,0,2.91,1.65h.2a3.65,3.65,0,0,1,.88,0,3,3,0,0,0,2.23-.91A4.6,4.6,0,0,0,45.75,64a26.35,26.35,0,0,1,.11-3,62.17,62.17,0,0,0,.33-7c0-1,0-2,0-2.94,0-.67,0-1.34,0-2,0-1.56,0-3.13,0-4.69S46.2,41.26,46.2,39.73Z"/><path class="a" d="M56.18,37.71c-.53,0-1.09-.07-1.6-.07h0c-.59,0-1.17-.07-1.75-.12a18.38,18.38,0,0,0-4,0,.77.77,0,0,0-.69,1.32,2.21,2.21,0,0,0,.2.22.93.93,0,0,1,.12.13l.08.12h.14c.37,0,.72-.06,1.06-.1a4.42,4.42,0,0,1,1.88,0l0,0a.49.49,0,0,1,0,.18c.07,1.59.15,3.39.19,5.14,0,.53,0,1.06,0,1.59a30.89,30.89,0,0,0,.25,4.81,8.43,8.43,0,0,1,0,2.33,20.68,20.68,0,0,0,0,4l0,.77c0,.66,0,1.35,0,2s0,1.55,0,2.29l-.11,3.1c0,.36,0,.71-.08,1.06s-.05.65-.07,1a.88.88,0,0,0,.71.95l.2,0a.76.76,0,0,0,.45-.14.78.78,0,0,0,.31-.56,11.2,11.2,0,0,0,.23-1.93c0-.83,0-1.66,0-2.49s0-1.69,0-2.54c0-.28,0-.56,0-.84a10.05,10.05,0,0,0,0-1.74,24.85,24.85,0,0,1-.07-4.7c0-.89,0-1.83,0-2.73,0-.42-.07-.83-.11-1.25-.06-.61-.12-1.24-.15-1.85,0-2,0-4,0-6.06,0-.42,0-.84,0-1.26s0-.74,0-1.12a6.32,6.32,0,0,1,2.58.33l.29.08L56.9,39a.92.92,0,0,0,.06-.88A.94.94,0,0,0,56.18,37.71Z"/><path class="a" d="M76.33,37.4a.82.82,0,0,0-1.09.32,1.85,1.85,0,0,0-.16.6,10,10,0,0,0-.36,1.5c-.44,1.78-.89,3.55-1.29,5.28-.26.92-.49,1.81-.74,2.75l-.12.47a2.07,2.07,0,0,1-.31-.55l-.44-.87A36.48,36.48,0,0,1,70,43c-.19-.54-.41-1.07-.62-1.61a22.38,22.38,0,0,1-1.07-3.06.9.9,0,0,0-.38-.61,1,1,0,0,0-.81-.06l-.16,0,0,.16a1.91,1.91,0,0,1,0,.2,1.25,1.25,0,0,0-.06.56l0,.17a7.06,7.06,0,0,0,.42,1.46l.22.54c.52,1.29,1,2.52,1.53,3.73.78,1.68,1.57,3.29,2.33,4.85l.7,1.23c-.07.31-.13.61-.19.91s-.17.85-.28,1.28c-.14,1-.32,2-.55,3-.07.35-.14.71-.21,1.07-.17.86-.35,1.74-.46,2.61a25.89,25.89,0,0,1-.73,3.33l-.38,1.25c-.25.83-.51,1.68-.73,2.52a2,2,0,0,0,0,.85.72.72,0,0,0,.63.77h.12a.85.85,0,0,0,.76-.5l.13-.57.54-1.86.57-1.94a4.58,4.58,0,0,0,.16-.78c.36-2.32.82-5,1.44-7.72l.05-.23a5.79,5.79,0,0,0,.14-.72,35.45,35.45,0,0,1,.85-4.46c.14-.59.28-1.17.4-1.76.32-1.28.67-2.6,1-3.91l.53-2c.1-.38.19-.77.29-1.15.19-.76.38-1.54.6-2.3A.77.77,0,0,0,76.33,37.4Z"/><path class="a" d="M87.93,42.28a4.51,4.51,0,0,0-2-3.91,9.05,9.05,0,0,0-2.17-.91l-.16,0a1.5,1.5,0,0,0-1.87.35h-.1a1,1,0,0,0-.31.07,3.51,3.51,0,0,0-1.51,1.28,9.54,9.54,0,0,0-1.4,3.31c-.22,1.38-.36,2.72-.52,4.2a5.34,5.34,0,0,0,.06,1c0,.17,0,.34.06.53a6,6,0,0,1,.07.79c0,.42.05.84.08,1.25.06.82.12,1.68.14,2.52.09,1.5.15,3,.2,4.45,0,1,.08,2,.13,2.95v3.77a3.58,3.58,0,0,0,1.22,2.73,5.77,5.77,0,0,0,3.52,1.51h.27a4,4,0,0,0,3.66-3.12A26.49,26.49,0,0,0,88,59.61c.07-3,0-6,0-9C88,47.92,88,45.09,87.93,42.28ZM86.4,58.55a15,15,0,0,1-.21,3.36C86.11,62.44,86,63,86,63.5a4.29,4.29,0,0,1-1.38,2.6,1.12,1.12,0,0,1-1.08.25,5.56,5.56,0,0,1-1.67-.42,2.5,2.5,0,0,1-1.59-2.44c0-.37,0-.74,0-1.1,0-.72,0-1.46,0-2.19,0-1.22-.07-2.42-.13-3.58,0-.59-.07-1.17-.09-1.77-.11-1.74-.22-3.55-.3-5.35a2.64,2.64,0,0,1,0-.37,3.17,3.17,0,0,0,0-.45,15.19,15.19,0,0,1,.41-6.13,5,5,0,0,1,1-2.26,1.87,1.87,0,0,1,1.14-.76l.48-.18c.19-.08.39-.16.58-.22a1,1,0,0,1,.22,0h.08l.39.2a7.42,7.42,0,0,1,1.23.73,2.46,2.46,0,0,1,1,2.06c0,.15,0,.3,0,.46a8.45,8.45,0,0,1,0,.89v0c0,.34,0,.68.07,1s.08.92.08,1.35c0,1.23,0,2.5,0,3.62v3.81a17.87,17.87,0,0,1,0,3.21c0,.55,0,1.09,0,1.64A1.37,1.37,0,0,0,86.4,58.55Z"/><path class="a" d="M100.33,39.73a4.26,4.26,0,0,0,0-.7.8.8,0,0,0-.69-.73.83.83,0,0,0-.91.6,3,3,0,0,0,0,1c.07,2.62.15,5.59.19,8.51,0,1.28,0,2.62,0,3.91,0,.43,0,.86,0,1.3,0,.21,0,.42,0,.64s0,.42,0,.66a8.86,8.86,0,0,1,.07.94l0,.48c-.06,1.06-.13,2.16-.23,3.21,0,.46-.1.91-.15,1.36a20.33,20.33,0,0,0-.22,3.41,1.93,1.93,0,0,1-.61,1.6,2.74,2.74,0,0,1-2.76.51,3,3,0,0,1-1.81-1.86,5.75,5.75,0,0,1-.39-2.2c0-1.23,0-2.51.07-3.73.07-1.49,0-3,0-4.46,0-.92-.05-1.84-.05-2.77,0-1.31-.06-2.64-.1-3.92a77.28,77.28,0,0,1,0-7.74,6.51,6.51,0,0,0,0-.84c0-.13,0-.25,0-.39a.86.86,0,0,0-.92-.93,1.41,1.41,0,0,0-.55.21l.1.23-.11-.22-.14.07v2.16c0,1,0,2.09,0,3.13,0,2,0,4.15.09,6.2.13,4.07.18,7.33.15,10.27,0,.67,0,1.32,0,2s0,1.28,0,1.93a4.07,4.07,0,0,0,.71,2.36l.15.25a4,4,0,0,0,.34.51,3.73,3.73,0,0,0,2.91,1.65h.2a3.65,3.65,0,0,1,.88,0,3,3,0,0,0,2.23-.91A4.6,4.6,0,0,0,99.88,64a26.35,26.35,0,0,1,.11-3,62.17,62.17,0,0,0,.33-7c0-1,0-2,0-2.94,0-.67,0-1.34,0-2,0-1.56,0-3.13,0-4.69S100.33,41.26,100.33,39.73Z"/><path class="a" d="M112.43,66.83a2.71,2.71,0,0,0-.25-.54,19,19,0,0,1-1.68-4.43,10.61,10.61,0,0,0-.38-1.18c-.74-1.75-1.46-3.51-2.14-5.21a4.47,4.47,0,0,1-.48-2.37l.11-.1c.53-.47,1.14-1,1.73-1.46a4,4,0,0,0,1.53-2.28A12.84,12.84,0,0,0,111,43.5a7.07,7.07,0,0,0-3-5l-.43-.26a8,8,0,0,0-.94-.53,4.08,4.08,0,0,0-1.33-.27h0a1.3,1.3,0,0,0-1,.51,1.14,1.14,0,0,0-.06,1,12.56,12.56,0,0,1,.25,3.67c0,.26,0,.52,0,.77s0,.49,0,.75q0,1.07,0,2.15c0,1.42,0,2.89,0,4.32,0,2.24-.14,4.43-.25,6.75v.17c0,.42,0,.83-.06,1.25a21.69,21.69,0,0,0,0,2.55,29.57,29.57,0,0,1,0,4c0,.37,0,.73-.08,1.09s-.05.66-.07,1v.15l.13.08c.53.33.92.58,1.22.28a2,2,0,0,0,.38-.75,1.65,1.65,0,0,0,.08-.64c0-.68,0-1.38.07-2.06a15.51,15.51,0,0,0-.07-3.65,3.25,3.25,0,0,1,0-1,22.77,22.77,0,0,0,.15-4.23.83.83,0,0,1,.11-.59l.2.46c.15.35.29.68.44,1a37,37,0,0,1,2.2,5.58,42.87,42.87,0,0,0,1.86,5.21,1.61,1.61,0,0,0,1.3,1l.19,0,.09-.14c.32-.54.44-.74.28-1.07Zm-6.54-27.54a3.45,3.45,0,0,1,2.48,1.82,7.55,7.55,0,0,1,1,2.65,14.9,14.9,0,0,1,0,4.76,2.6,2.6,0,0,1-.91,1.67c-.41.33-.8.67-1.18,1l-1.16,1,0,0q0-1,0-2c0-1.45.06-3,.06-4.44C106.1,43.63,106,41.52,105.89,39.29Z"/><path class="a" d="M131.38,66l-.07,0a1.1,1.1,0,0,0-.47-.17,11.48,11.48,0,0,0-1.15-.15,9.78,9.78,0,0,0-2.81.23l-.19.05a1.22,1.22,0,0,1-.94,0V64.77c-.07-1.63-.11-3.28-.15-4.88,0-.58,0-1.16-.07-1.74s-.06-1.14-.07-1.7c0-.36,0-.73,0-1.09a18.93,18.93,0,0,1,.07-3.5,17.81,17.81,0,0,0,.26-4,19.35,19.35,0,0,1,0-3.25c.11-2,0-4.07,0-6.09a1.19,1.19,0,0,0-.33-.93,1.42,1.42,0,0,0-1.15-.08l-.2,0v.21a2,2,0,0,1,0,.2,3,3,0,0,0,0,.32c0,.51,0,1,0,1.52s0,1,0,1.51l.11,7c0,.58,0,1.22-.07,1.84s-.07,1.15-.12,1.72c-.07.91-.14,1.85-.14,2.78s.06,1.8.1,2.7c.07,1.4.13,2.86.09,4.29v.14c0,.53,0,1.07,0,1.58a13.07,13.07,0,0,1-.2,3.47,1,1,0,0,0,.27.91,1,1,0,0,0,.7.32H125l2.07-.44a5.23,5.23,0,0,1,2.84,0,1.2,1.2,0,0,0,.67.14,1.56,1.56,0,0,0,.75-.18.88.88,0,0,0,.46-.69A.93.93,0,0,0,131.38,66Z"/><path class="a" d="M141.69,42.28a4.51,4.51,0,0,0-2-3.91,9.05,9.05,0,0,0-2.17-.91l-.16,0a1.5,1.5,0,0,0-1.87.35h-.1a1,1,0,0,0-.31.07,3.51,3.51,0,0,0-1.51,1.28,9.54,9.54,0,0,0-1.4,3.31c-.22,1.38-.36,2.71-.52,4.2a5.34,5.34,0,0,0,.06,1c0,.17,0,.34.06.53a6,6,0,0,1,.07.79c0,.42.05.84.08,1.25.06.82.12,1.68.14,2.52.09,1.5.15,3,.2,4.45,0,1,.08,2,.13,2.95v3.77a3.58,3.58,0,0,0,1.22,2.73,5.77,5.77,0,0,0,3.52,1.51h.27a4,4,0,0,0,3.66-3.12,26.49,26.49,0,0,0,.71-5.46c.07-3,0-6,0-9C141.77,47.92,141.77,45.09,141.69,42.28Zm-1.54,16.27a15,15,0,0,1-.21,3.36c-.07.53-.15,1.06-.19,1.59a4.3,4.3,0,0,1-1.38,2.6,1.12,1.12,0,0,1-1.08.25,5.56,5.56,0,0,1-1.67-.42A2.5,2.5,0,0,1,134,63.49c0-.37,0-.74,0-1.1,0-.72,0-1.46,0-2.19,0-1.22-.07-2.42-.13-3.58,0-.59-.07-1.17-.09-1.77-.11-1.74-.22-3.55-.3-5.35a2.64,2.64,0,0,1,0-.37,3.17,3.17,0,0,0,0-.45,15.19,15.19,0,0,1,.41-6.13,5,5,0,0,1,1-2.26,1.87,1.87,0,0,1,1.14-.76l.48-.18c.19-.08.39-.16.58-.22a1,1,0,0,1,.22,0h.08l.39.2A7.4,7.4,0,0,1,139,40a2.46,2.46,0,0,1,1,2.06c0,.15,0,.3,0,.46a8.45,8.45,0,0,1,0,.89v0c0,.34,0,.68.07,1s.08.92.08,1.35c0,1.23,0,2.5,0,3.62v3.81a17.87,17.87,0,0,1,0,3.21c0,.55,0,1.09,0,1.64A1.37,1.37,0,0,0,140.16,58.55Z"/><path class="a" d="M156,37.13a1,1,0,0,0-.84,0,1,1,0,0,0-.53.65c-.13.52-.25,1-.37,1.56s-.24,1-.37,1.56c-.07.35-.13.69-.18,1s-.11.66-.19,1-.08.48-.13.71-.09.49-.13.72c-.17.89-.37,1.9-.52,2.9,0,.19-.06.39-.1.59a10.34,10.34,0,0,0-.2,1.77,26.36,26.36,0,0,1-.37,3.3l-.89,6.25c0,.25-.09.51-.15.77a9.26,9.26,0,0,0-.22,1.4,9.21,9.21,0,0,1-.49,2.58,5.18,5.18,0,0,1-.18-1l0-.13a16.22,16.22,0,0,0-.26-2.33c-.25-1.33-.47-2.69-.69-4-.4-2.39-.81-4.87-1.38-7.26-.19-.87-.35-1.76-.5-2.62-.23-1.32-.48-2.68-.84-4-.09-.29-.16-.59-.24-.89s-.15-.62-.24-.92a26.83,26.83,0,0,0-.89-2.63,1.39,1.39,0,0,0-.61-.8c-.3-.22-.81,0-1,0a1,1,0,0,0-.29.77,2.49,2.49,0,0,0,.13.45c0,.09.07.18.11.32a8.8,8.8,0,0,1,.69,1.84c.15.55.3,1.1.45,1.65a46.83,46.83,0,0,1,1.28,5.46c.11.81.3,1.62.47,2.41.12.53.24,1.06.34,1.59.42,2.48.8,4.94,1.15,7.26,0,.15.07.31.1.46a5.5,5.5,0,0,1,.19,1.2,30.48,30.48,0,0,0,.62,4.47c.1.51.19,1,.27,1.5a3,3,0,0,0,.31,1,1.08,1.08,0,0,0,1,.76h0a1.23,1.23,0,0,0,1-.81l.12-.42c.1-.5.21-1,.32-1.48.2-.88.4-1.79.57-2.71s.25-1.74.37-2.61.24-1.74.37-2.6l.89-6.11c0-.28.06-.58.08-.87s0-.56.07-.85c.08-.95.19-1.91.29-2.74,0-.22.1-.43.15-.63a10.62,10.62,0,0,0,.26-1.25,20.76,20.76,0,0,1,.65-3.2c.19-.73.39-1.49.52-2.24l0-.15a2.26,2.26,0,0,0,.09-.37c.06-.14.12-.27.18-.4a4.52,4.52,0,0,0,.27-.65A1,1,0,0,0,156,37.13Z"/><path class="a" d="M165.83,65.31h-.18l-.09,0a1.28,1.28,0,0,1-.31.07l-.23,0a3.87,3.87,0,0,1-1.22.14h-1.37a1,1,0,0,1-.29,0c-.45.07-.83.11-1.34.15h-.22V59.9c0-1.06,0-2,.11-3a20.8,20.8,0,0,0,0-4.94,6.73,6.73,0,0,1,1.77-.27,4.68,4.68,0,0,1,1.07.11l.18,0a2,2,0,0,0,.34,0c.87,0,1-.84,1.1-1.54v-.18L165,50a1.32,1.32,0,0,0-1-.41l-.21,0-.2,0h-.08a.54.54,0,0,1-.19,0c-.7,0-1.44.11-2.21.19a3.08,3.08,0,0,1-.45,0v-.47c0-.62,0-1.29,0-1.87V44.82c0-.46,0-.84,0-1.24v-4a.59.59,0,0,1,.33-.07.51.51,0,0,0,.21,0,5.35,5.35,0,0,0,1.1,0h.89a5.55,5.55,0,0,1,1.81.25h.26a1,1,0,0,0,.91-.85.9.9,0,0,0-.14-.71.87.87,0,0,0-.61-.49l-.32,0-.32,0h-.18a8.64,8.64,0,0,1-1,0,19.61,19.61,0,0,1-2.07-.11h-.37l-.46,0-.49,0a2.79,2.79,0,0,1-.75.1c-.4,0-.72.55-.77.88,0,.1,0,.2,0,.31s0,.21,0,.32v.08a.78.78,0,0,1,0,.24c0,.22,0,.44,0,.66s0,.45,0,.67c.07,1,.11,2.15.11,3.24v.85c0,2.37-.08,5.06.07,7.61a11.8,11.8,0,0,1,0,2.29c-.11,1.33-.19,2.71-.22,4.09v.9l-.08.83a9.66,9.66,0,0,0-.07,1,32.08,32.08,0,0,1-.14,4.6l0,.11v.24c0,.47.36,1.08.81,1.14a10,10,0,0,0,1.37.11h.19c.35,0,.7,0,1.07-.07l.21,0c.36,0,.7-.06,1.06-.06a5.61,5.61,0,0,1,.61,0,.91.91,0,0,0,.61,0l.17-.06,0,0a1.1,1.1,0,0,1,.63,0l.13.06a.75.75,0,0,0,.26.06,1,1,0,0,0,.84-.59,1.6,1.6,0,0,0,.19-1A.86.86,0,0,0,165.83,65.31Z"/><path class="a" d="M185.88,66l-.07,0a1.38,1.38,0,0,0-.48-.17,11.45,11.45,0,0,0-1.15-.15,9.91,9.91,0,0,0-2.81.23l-.19.05a1.22,1.22,0,0,1-.94,0V64.77c-.07-1.63-.11-3.28-.15-4.88,0-.57,0-1.15-.07-1.72s-.06-1.14-.07-1.71c0-.37,0-.73,0-1.09a19,19,0,0,1,.07-3.49,17.79,17.79,0,0,0,.26-4,19.36,19.36,0,0,1,0-3.25c.11-2,0-4.06,0-6.09a1.2,1.2,0,0,0-.33-.93,1.42,1.42,0,0,0-1.15-.08l-.2,0v.21a2,2,0,0,1,0,.2,3,3,0,0,0,0,.32c0,.5,0,1,0,1.51s0,1,0,1.52l.11,7c0,.58,0,1.22-.07,1.84s-.07,1.14-.12,1.71c-.07.91-.14,1.85-.14,2.78s.06,1.82.1,2.71c.07,1.4.13,2.85.09,4.28v.14c0,.53,0,1.07,0,1.59a13.06,13.06,0,0,1-.2,3.47,1,1,0,0,0,.27.91,1,1,0,0,0,.7.32h.14l2.07-.44a5.23,5.23,0,0,1,2.84,0,1.18,1.18,0,0,0,.67.14,1.57,1.57,0,0,0,.75-.18.87.87,0,0,0,.46-.69A.93.93,0,0,0,185.88,66Z"/><path class="a" d="M188.84,39.65a.94.94,0,0,0,.69-.31,1.17,1.17,0,0,0,.3-.89c0-.35-.33-.75-1-.7a1,1,0,0,0-1,.92A1.14,1.14,0,0,0,188.84,39.65Z"/><path class="a" d="M189.9,43.06a7,7,0,0,0-.08-1.26,1.44,1.44,0,0,0-.47-.83.86.86,0,0,0-.7-.12.79.79,0,0,0-.53.43.84.84,0,0,0,0,.49,20.16,20.16,0,0,1,.22,3.33c0,.49,0,.95,0,1.34.05.84.05,1.8.05,2.72s0,1.9.06,2.75a40.49,40.49,0,0,1-.15,6.37c0,.28,0,.54-.07.8a30.41,30.41,0,0,0-.16,3.66c0,1.84.07,3.31.07,4.51v.17l.16.06.17.08a1.44,1.44,0,0,0,.37.15,1.1,1.1,0,0,0,.29,0,.74.74,0,0,0,.77-.72,4.63,4.63,0,0,0,0-.75c0-.39,0-.82-.06-1.27,0-.75-.08-1.52-.08-2.16,0-.48,0-.89,0-1.25,0-.59,0-1.06,0-1.51s.07-1.11.12-1.71c.08-1,.15-2,.18-3,0-1.87,0-4.86-.07-7.45Z"/><path class="a" d="M202.34,37.85a6.13,6.13,0,0,0-.79.06h-.08a10.29,10.29,0,0,1-3-.11,15.72,15.72,0,0,0-2.33-.26,3,3,0,0,0-2.29.66l-.05.05,0,.07a.64.64,0,0,1,0,.1.44.44,0,0,0,0,.31,20.88,20.88,0,0,1,.11,4c0,.44,0,.9,0,1.36.22,2.32.22,4.7.22,7,0,.21,0,.41,0,.62,0,.42-.07.85-.07,1.28v9.77a1.85,1.85,0,0,1-.06.39c0,.08,0,.16-.05.27,0,.58,0,1.17,0,1.76s0,1.17,0,1.76a.81.81,0,0,0,.66.8h.12a.93.93,0,0,0,.56-.19.69.69,0,0,0,.27-.47,8,8,0,0,0,.15-1.37c0-2.37,0-4.82,0-7.18l0-.64a25.78,25.78,0,0,0,0-3.17,10,10,0,0,1,.07-2.88l.38,0c1.11-.06,2.16-.12,3.23-.15h.17l.06-.16c0-.06.05-.12.08-.18a1.09,1.09,0,0,0,.1-1c-.11-.28-.4-.61-1.12-.52l-1.45.22a2.17,2.17,0,0,1-1.45-.24c-.16-3.1-.29-6.74-.11-10.43a5.31,5.31,0,0,1,2.12-.05,15.48,15.48,0,0,0,3.22.26,2.68,2.68,0,0,1,.45.06l.3,0a1.12,1.12,0,0,0,.89-.07,1.2,1.2,0,0,0,.49-.82.85.85,0,0,0-.16-.71A.68.68,0,0,0,202.34,37.85Z"/><path class="a" d="M211.52,65.31h-.18l-.09,0a1.28,1.28,0,0,1-.31.07l-.23,0a3.87,3.87,0,0,1-1.22.14h-1.37a1,1,0,0,1-.29,0c-.45.07-.83.11-1.34.15h-.22V59.9c0-1.06,0-2,.11-3a20.8,20.8,0,0,0,0-4.94,6.73,6.73,0,0,1,1.77-.27,4.68,4.68,0,0,1,1.07.11l.18,0a2,2,0,0,0,.34,0c.87,0,1-.84,1.1-1.54v-.18L210.7,50a1.32,1.32,0,0,0-1-.41l-.21,0-.2,0h-.08a.54.54,0,0,1-.19,0c-.7,0-1.44.11-2.21.19a3.08,3.08,0,0,1-.45,0v-.47c0-.62,0-1.29,0-1.87V44.82c0-.46,0-.84,0-1.24v-4a.61.61,0,0,1,.33-.07.54.54,0,0,0,.21,0,5.35,5.35,0,0,0,1.1,0h.89a5.55,5.55,0,0,1,1.81.25H211a1,1,0,0,0,.91-.85.9.9,0,0,0-.14-.71.87.87,0,0,0-.61-.49l-.32,0-.32,0h-.18a8.64,8.64,0,0,1-1,0,19.61,19.61,0,0,1-2.07-.11h-.37l-.46,0-.49,0a2.79,2.79,0,0,1-.75.1c-.4,0-.72.55-.77.88,0,.1,0,.2,0,.31s0,.21,0,.32v.08a.78.78,0,0,1,0,.24c0,.22,0,.44,0,.66s0,.45,0,.67c.07,1,.11,2.15.11,3.24v.85c0,2.37-.08,5.06.07,7.61a11.8,11.8,0,0,1,0,2.29c-.11,1.33-.19,2.71-.22,4.09v.9l-.08.83a9.66,9.66,0,0,0-.07,1,32.08,32.08,0,0,1-.14,4.6l0,.11v.24c0,.47.36,1.08.81,1.14a10,10,0,0,0,1.37.11h.19c.35,0,.7,0,1.07-.07l.21,0c.36,0,.7-.06,1.06-.06a5.61,5.61,0,0,1,.61,0,.91.91,0,0,0,.61,0l.17-.06,0,0a1.1,1.1,0,0,1,.63,0l.13.06a.75.75,0,0,0,.26.06,1,1,0,0,0,.84-.59,1.6,1.6,0,0,0,.19-1A.86.86,0,0,0,211.52,65.31Z"/><path class="a" d="M221.22,37.29a5,5,0,0,0-3.59-.58,4.64,4.64,0,0,0-3.51,5.19,1.11,1.11,0,0,0,.82.87l.15.06.12-.12c.68-.68.7-.73.7-1.47a2.72,2.72,0,0,1,2.22-2.91,2.54,2.54,0,0,1,3,1.49,7,7,0,0,1-.06,4.87l-.05.13c-.82,2-1.67,4-2.53,6a17.55,17.55,0,0,0-1.61,6.75c-.06.92,0,1.86,0,2.76q0,.46,0,.91c0,.21,0,.42,0,.62,0,.42,0,.85,0,1.26a8.27,8.27,0,0,0,.08,1.38,1,1,0,0,0,.9.84h.08c.34,0,.73-.25.73-1,0-.32,0-.64,0-1s0-.62,0-.93c0-1.65,0-3.22,0-4.85a9.41,9.41,0,0,1,.15-1.46,4.76,4.76,0,0,1,.09-.51,4.93,4.93,0,0,0,.1-.59,4.24,4.24,0,0,1,.39-1.75c.47-1.14,1-2.27,1.43-3.41.59-1.38,1.18-2.77,1.75-4.19l.11-.3a9.5,9.5,0,0,0,.61-2.35,10,10,0,0,0-.64-4.1A2.69,2.69,0,0,0,221.22,37.29Z"/><path class="a" d="M219,68a2,2,0,0,0-1.48.07,1.34,1.34,0,0,0-.94,1.11l0,.13.09.09c.72.76.76.8,1.32.89a2,2,0,0,0,.39,0,1.28,1.28,0,0,0,1.31-1.08A1,1,0,0,0,219,68Z"/></svg>