<svg xmlns="http://www.w3.org/2000/svg" viewBox="0 0 191.5 22.22"><defs><style>.a{fill:#243a78;}</style></defs><title>eng</title><path class="a" d="M10.11.92a.84.84,0,0,0-.86.66l-.07.35c-.14,1-.27,1.87-.36,2.81s-.2,1.77-.29,2.66L8.4,8.78c0,.2-.05.4-.08.6a8.75,8.75,0,0,0-.13,1.33,22.77,22.77,0,0,1-.3,3.2l-.06.39c-.07.62-.17,1.23-.27,1.84h0c-.07-.36-.13-.73-.18-1.1-.1-.64-.18-1.28-.25-1.91s-.12-1-.2-1.54a20.41,20.41,0,0,0-.38-2.12,2.36,2.36,0,0,0-.29-.78.79.79,0,0,0-.61-.31.74.74,0,0,0-.58.24L5,8.73a1.31,1.31,0,0,0-.3.88,3.65,3.65,0,0,1,0,.51c0,.13,0,.26,0,.37l-.06.36a8.38,8.38,0,0,0-.13,1c0,.49-.06,1-.09,1.48s0,1-.08,1.42L4.1,16l0,.14c-.09-.46-.15-.92-.22-1.37s-.13-1-.23-1.45c-.16-.86-.32-1.73-.49-2.59S2.81,9,2.66,8.11C2.45,7,2.32,5.9,2.16,4.6A15.58,15.58,0,0,0,1.73,2a3.62,3.62,0,0,0-.28-.85A.79.79,0,0,0,1,.66.78.78,0,0,0,.36.7a.77.77,0,0,0-.29,1A14.19,14.19,0,0,1,.62,4.12c.07.77.19,1.51.32,2.29l0,.21a8.73,8.73,0,0,0,.15,1l0,.19c.23,1.33.47,2.66.68,4,.08.5.17,1,.27,1.51.14.79.29,1.58.41,2.4.13.66.23,1.33.33,2,.07.47.14.95.22,1.42,0,.12,0,.24,0,.35a3.94,3.94,0,0,0,.06.44,1,1,0,0,0,.51.69.83.83,0,0,0,.36.08,1.1,1.1,0,0,0,.45-.1,1,1,0,0,0,.39-.28L5,20.27l0-.11a43.16,43.16,0,0,0,.63-4.7l.1-1.05,0-.74c.12,1.19.31,2.37.53,3.68,0,.27.09.55.13.83s.08.57.13.84a2.46,2.46,0,0,0,.63,1.4.87.87,0,0,0,.91.24.91.91,0,0,0,.52-.82,2.63,2.63,0,0,0,0-.47c0-.29.07-.59.1-.89s.09-.85.16-1.28l.13-.9c.25-1.76.51-3.58.59-5.41a13.14,13.14,0,0,1,.09-1.34,35.93,35.93,0,0,0,.44-3.6l0-.29a9.27,9.27,0,0,1,.23-1.79A16.25,16.25,0,0,0,10.76,2a1,1,0,0,0-.15-.79A.71.71,0,0,0,10.11.92Z"/><path class="a" d="M18.54.9a.72.72,0,0,0-.82-.61.78.78,0,0,0-.62.9,2,2,0,0,0,0,.35,1.46,1.46,0,0,1,0,.27c0,1,.07,2,.1,3l0,.45a16.31,16.31,0,0,1,0,1.71c-.11,1.59-.12,3.2-.12,4.75,0,.78,0,1.57,0,2.33l-.06,1.29c-.15.15-.24.16-.29.15a9.13,9.13,0,0,0-2-.05l-.62,0a.54.54,0,0,1-.3,0c0-.54,0-1.09,0-1.62a16.83,16.83,0,0,1,0-1.8c.08-1.1.08-2.21.07-3.29,0-.54,0-1.09,0-1.64v-4c0-.53,0-1.07,0-1.67a2.25,2.25,0,0,0-.12-.63.68.68,0,0,0-.86-.45.66.66,0,0,0-.53.83c0,.24.06.48.09.73s.09.6.1.91,0,.66,0,1,0,.55,0,.82V5.78c0,.51,0,1,0,1.52l0,.75c0,1,0,2,0,3,0,.42,0,.85,0,1.24a8.1,8.1,0,0,0,0,2.19,11.24,11.24,0,0,1-.07,2.78c-.1.71-.15,1.42-.19,2.09a2.58,2.58,0,0,0,.09.85.69.69,0,0,0,.57.45.7.7,0,0,0,.62-.31,1.19,1.19,0,0,0,.17-.56v-.13c0-.29,0-.58,0-.88s0-.57,0-.88a3.3,3.3,0,0,1,.13-.87,10,10,0,0,1,3.14,0,11.32,11.32,0,0,1,0,1.66c0,.48,0,.95,0,1.39a.71.71,0,0,0,.53.8l.16,0a.77.77,0,0,0,.75-.66,4.22,4.22,0,0,0,0-.57c0-.76,0-1.52,0-2.27s0-1.51,0-2.27c0-.33,0-.67,0-1l0-.47c0-.85,0-1.7,0-2.54,0-1.06,0-2.15.06-3.23.06-.81.06-1.63.06-2.42,0-.4,0-.79,0-1.2,0-.84,0-1.71,0-2.53A4.3,4.3,0,0,0,18.54.9Z"/><path class="a" d="M26.33,17.59c-.09-.45-.19-.9-.26-1.34l-.65-4.63c-.19-1.43-.38-2.84-.55-4.28,0-.4-.09-.81-.13-1.22-.06-.61-.12-1.22-.21-1.82l0-.28a7.51,7.51,0,0,1-.12-1.65,2.54,2.54,0,0,0-.21-.88l0-.09A.69.69,0,0,0,23.69,1a.72.72,0,0,0-.61.08,1.59,1.59,0,0,0-.81,1.37l-.07.88c-.07.83-.13,1.67-.24,2.5s-.22,1.66-.34,2.49c-.09.61-.18,1.22-.26,1.82s-.2,1.35-.3,2-.25,1.64-.37,2.46l-.31,1.88c-.06.31-.11.63-.17,1s-.11.63-.17.94l-.22,1.14a.78.78,0,0,0,.64,1,.77.77,0,0,0,.94-.65l0-.18c.06-.39.13-.8.21-1.18l.07-.3a10.65,10.65,0,0,0,1.35-.12,7,7,0,0,1,1.8-.08l0,.21,0,.19c0,.53.1,1,.17,1.57a.8.8,0,0,0,.76.68h.08a.76.76,0,0,0,.47-.17.81.81,0,0,0,.3-.57,2.93,2.93,0,0,0,0-.49C26.57,18.8,26.45,18.2,26.33,17.59Zm-4.31-2c0-.2.08-.39.11-.59.07-.6.17-1.2.26-1.79.07-.4.13-.81.19-1.21l.14-1.1c.09-.73.18-1.46.29-2.19,0-.3.11-.59.17-.89s.09-.45.13-.67v.17c.06.61.15,1.22.23,1.82,0,.32.09.64.13,1,.08.56.16,1.13.24,1.7s.19,1.33.28,2c.06.43.13.86.19,1.3l.19,1.23v.07l-1.74.18a4.17,4.17,0,0,1-.71,0,.87.87,0,0,1-.23-.07A3.5,3.5,0,0,1,22,15.55Z"/><path class="a" d="M31.61.72c-.34,0-.71,0-1,0h0c-.38,0-.75,0-1.12-.07a12.06,12.06,0,0,0-2.61,0,.87.87,0,0,0-.72.36.89.89,0,0,0,.12.83,2.28,2.28,0,0,0,.2.22l.12.17h.21c.24,0,.47,0,.7-.07a3,3,0,0,1,1,0c0,1.09.09,2.2.12,3.29,0,.34,0,.68,0,1a20.07,20.07,0,0,0,.17,3.14,5.25,5.25,0,0,1,0,1.45,13.55,13.55,0,0,0,0,2.64l0,.49c0,.42,0,.87,0,1.29s0,1,0,1.47l-.07,2c0,.23,0,.46,0,.68s0,.42,0,.65a.78.78,0,0,0,.63.82l.18,0a.7.7,0,0,0,.71-.63,7.38,7.38,0,0,0,.15-1.28c0-.54,0-1.07,0-1.61s0-1.09,0-1.64c0-.18,0-.36,0-.53a6.69,6.69,0,0,0,0-1.16,15.87,15.87,0,0,1,0-3c0-.58,0-1.2,0-1.79,0-.27,0-.54-.07-.81S30.06,7.79,30,7.4c0-1.28,0-2.6,0-3.91,0-.27,0-.54,0-.81s0-.35,0-.53a4.82,4.82,0,0,1,1.49.25l.23.06.47-.57a.8.8,0,0,0,0-.76A.81.81,0,0,0,31.61.72Z"/><path class="a" d="M45.24.25a.69.69,0,0,0-.67.24,1.2,1.2,0,0,0-.29.57l-.36.84c-.22.52-.44,1-.7,1.56s-.34.77-.51,1.16L41,8.51l-.21.43c0-.34,0-.68.06-1,.05-.81.11-1.64.1-2.47,0-.52,0-1,0-1.56,0-1,0-2.07-.06-3.12l0-.29L40.6.42a1.07,1.07,0,0,0-.93.13,1,1,0,0,0-.23.89c0,.65.09,1.33.09,2,0,1.13,0,2.3,0,3.48,0,.5,0,1-.05,1.51,0,.34,0,.68,0,1a5.54,5.54,0,0,0,0,1,10,10,0,0,1,.1,3.35,8.47,8.47,0,0,0,0,1.66,11.12,11.12,0,0,1,0,2.14c0,.22,0,.45,0,.69s0,.51,0,.77,0,.54,0,.81a1.38,1.38,0,0,0,.17.67.81.81,0,0,0,.58.37h.1a.52.52,0,0,0,.3-.1.67.67,0,0,0,.27-.45,2.92,2.92,0,0,0,.08-.71,22.08,22.08,0,0,1,0-2.29c0-.33,0-.67,0-1s0-.48,0-.73v-.35c0-.15,0-.3,0-.45A2.26,2.26,0,0,1,41,14c.07-.63.08-1.27.09-1.89,0-.21,0-.42,0-.62l.65-1a2.2,2.2,0,0,0,.11-.22A15.36,15.36,0,0,0,42.23,12a10,10,0,0,1,.37,2.3c.06.51.16,1,.26,1.55l.1.51c.23,1.08.47,2.15.69,3.29l.09.28a.74.74,0,0,0,1.44-.32,1.64,1.64,0,0,0-.06-.39l-.36.09h0l.34-.19c-.05-.23-.12-.45-.19-.66s-.11-.34-.15-.51l-.65-2.69a1.91,1.91,0,0,1,0-.46,20.54,20.54,0,0,0-.49-3.23A16.83,16.83,0,0,1,43.06,9a2.21,2.21,0,0,0-.32-1.13v0c.25-.49.48-1,.72-1.48.31-.67.63-1.35,1-2l.1-.23a4.29,4.29,0,0,0,.21-.56,2.71,2.71,0,0,1,.34-.82l.07-.13a4,4,0,0,0,.38-.81,3.71,3.71,0,0,0,.17-.55l0-.17A.72.72,0,0,0,45.24.25Z"/><path class="a" d="M48.33,2.4a.82.82,0,0,0,.6-.27,1,1,0,0,0,.25-.75.77.77,0,0,0-.89-.64.89.89,0,0,0-.84.81A1,1,0,0,0,48.33,2.4Z"/><path class="a" d="M49.26,5.37a4.69,4.69,0,0,0-.05-.85,1.15,1.15,0,0,0-.39-.67.77.77,0,0,0-.63-.11.73.73,0,0,0-.5.42.71.71,0,0,0,0,.43,12.85,12.85,0,0,1,.14,2.11c0,.32,0,.62,0,.88,0,.54,0,1.14,0,1.74s0,.84,0,1.4a19.25,19.25,0,0,1-.13,3.51l0,.52a20,20,0,0,0-.1,2.39c0,.88,0,2,0,2.91v.25l.24.09.1,0a1.1,1.1,0,0,0,.28.11.91.91,0,0,0,.24,0,.69.69,0,0,0,.71-.64,3.34,3.34,0,0,0,0-.53c0-.25,0-.54,0-.83,0-.47-.05-1-.05-1.38s0-.58,0-.81,0-.67,0-1,0-.71.08-1.09c0-.62.1-1.29.12-2,0-1.21,0-2.18,0-3.85Z"/><path class="a" d="M58.23,5.47c0-.45,0-.9,0-1.35s0-1.08,0-1.62V1.69a1.16,1.16,0,0,0-.11-.6.79.79,0,0,0-.65-.42l-.12,0a1.12,1.12,0,0,0-.54.48,1.12,1.12,0,0,0-.05.47v.12c.08,1.28.07,2.52,0,3.46,0,.55,0,1.1,0,1.66s0,.88,0,1.32c0,1.1,0,2.19,0,3.3,0,.15,0,.31,0,.48s0,.39,0,.59l0,.83c0,.54,0,1.09-.05,1.65,0,.1,0,.2,0,.3-.12-.53-.26-1.09-.42-1.7l0-.1c-.08-.35-.15-.7-.22-1.06-.15-.73-.3-1.49-.49-2.22-.33-1.21-.62-2.51-.88-4A38.38,38.38,0,0,0,53.58,2l-.19-.67a.74.74,0,0,0-.15-.35L53.19.86,53.06.61l-.82.12a.7.7,0,0,0-.53.69l0,.65c0,.44,0,.89.05,1.32s.09,1,.14,1.52a30.56,30.56,0,0,1,.2,3.34c0,.4,0,.8,0,1.2s0,.8,0,1.21c0,1,0,2.05-.16,3.08a8.4,8.4,0,0,0-.1,1.38c0,1.51,0,3.06,0,4.57a1.51,1.51,0,0,0,.06.39l.13.55.38-.11h.12a1,1,0,0,0,.49-.13,1,1,0,0,0,.38-.84,1.72,1.72,0,0,0,0-.28.92.92,0,0,1,0-.16l0-1.15a41.11,41.11,0,0,1,.08-5.24c.1-1,.12-2,.13-2.92V9.24c0-.53,0-1.1,0-1.7.22,1,.43,2,.64,3,.26,1.26.53,2.52.81,3.79.05.24.12.47.19.7a8.45,8.45,0,0,1,.22.86c.17.75.33,1.5.5,2.25s.27,1.25.41,1.88.44.82,1,.82h.43l.1-.21a2.08,2.08,0,0,0,.15-1.06,4.06,4.06,0,0,1,0-1.13A8.46,8.46,0,0,0,58,17l.11-1.78c0-.27,0-.55,0-.85V12.16l0-.44a31.37,31.37,0,0,0,0-4.06C58.19,6.94,58.21,6.19,58.23,5.47Z"/><path class="a" d="M65.68,7.4c0-.66,0-1.3,0-2a5.55,5.55,0,0,0-.41-2,4.07,4.07,0,0,0-1.58-1.8,7.92,7.92,0,0,0-1.37-.64,9,9,0,0,1-1.1-.48.61.61,0,0,0-.46-.06.62.62,0,0,0-.4.25l-.11.16a1.4,1.4,0,0,0-.36.92v.47c0,.47,0,1,.09,1.47a12.57,12.57,0,0,1,.09,2.8v.54C60,8,60,9,60.06,9.9V10a23.33,23.33,0,0,1,.13,3.08,6.2,6.2,0,0,0,0,.71c0,.14,0,.29,0,.43v.48c0,.32,0,.66,0,1s0,.46-.07.69-.08.67-.09,1c0,.53,0,1-.05,1.56l0,.78a.54.54,0,0,0,.1.29l0,.08.08.19.2,0,.16,0a.37.37,0,0,1,.18.06,1.31,1.31,0,0,0,.32.2,1,1,0,0,0,.34.07h.12a5.23,5.23,0,0,0,3.22-1.56,2.64,2.64,0,0,0,.88-2,69.52,69.52,0,0,1,.06-7.21,1.25,1.25,0,0,0,0-.4C65.71,8.75,65.7,8.07,65.68,7.4Zm-1.56,9v.77a1.09,1.09,0,0,1-.34.83A3.75,3.75,0,0,1,61.53,19a15.54,15.54,0,0,1,0-2.77A21,21,0,0,0,61.62,14V12a9.86,9.86,0,0,0-.1-1.81A4.91,4.91,0,0,1,61.45,9a39.73,39.73,0,0,0,0-5.62c0-.12,0-.25,0-.38s0-.34,0-.51l.07,0a7.45,7.45,0,0,1,1,.42,2.75,2.75,0,0,1,1.67,2.57c0,.86.07,1.71.09,2.61,0,.17,0,.36,0,.53s0,.32,0,.47,0,.3,0,.45a4.31,4.31,0,0,1,0,.56c0,.4,0,.8-.07,1.19,0,.59-.08,1.18-.09,1.78C64.07,14.18,64.1,15.3,64.12,16.37Z"/><path class="a" d="M79.22,3.88a3.12,3.12,0,0,0-1.4-2.7A6.08,6.08,0,0,0,76.37.57l-.1,0A1.21,1.21,0,0,0,74.9.77a.84.84,0,0,0-.27.06,2.5,2.5,0,0,0-1.06.9A6.36,6.36,0,0,0,72.64,4c-.14.89-.24,1.76-.34,2.73a3.64,3.64,0,0,0,0,.71c0,.11,0,.21,0,.35a3.59,3.59,0,0,1,0,.5l.05.81c0,.54.07,1.08.09,1.63.06,1,.09,1.94.13,2.86,0,.67.05,1.31.08,1.91v2.43a2.51,2.51,0,0,0,.86,1.92,3.94,3.94,0,0,0,2.4,1h.19a2.82,2.82,0,0,0,2.57-2.18,17.32,17.32,0,0,0,.47-3.57c0-1.92,0-3.89,0-5.8S79.27,5.71,79.22,3.88ZM77.13,2.61a1.37,1.37,0,0,1,.57,1.16v.3a5.2,5.2,0,0,1,0,.55v0c0,.22,0,.44,0,.66s0,.58,0,.86c0,.79,0,1.6,0,2.33V11a11.26,11.26,0,0,1,0,2c0,.36,0,.71,0,1.07a.9.9,0,0,0,0,.3,9.41,9.41,0,0,1-.14,2.12c0,.35-.1.69-.13,1a2.59,2.59,0,0,1-.84,1.56c-.06.07-.18.15-.51.09a3.39,3.39,0,0,1-1-.26,1.4,1.4,0,0,1-.91-1.38v-.71c0-.48,0-.95,0-1.42,0-.79,0-1.57-.09-2.32,0-.38,0-.76-.06-1.14-.07-1.15-.14-2.29-.19-3.47a1.56,1.56,0,0,1,0-.21,2.21,2.21,0,0,0,0-.33,9.66,9.66,0,0,1,.26-3.88,3,3,0,0,1,.6-1.37,1,1,0,0,1,.63-.42l.32-.12L76.11,2l.26.13A4.6,4.6,0,0,1,77.13,2.61Z"/><path class="a" d="M85.69.87A6.46,6.46,0,0,1,83.85.8,10.33,10.33,0,0,0,82.31.63a2.15,2.15,0,0,0-1.64.48l-.09.11,0,.11a.5.5,0,0,0,0,.33,13.38,13.38,0,0,1,.07,2.55c0,.3,0,.59,0,.9.14,1.49.14,3,.14,4.49l0,.4c0,.28,0,.56,0,.84v6.31a1.1,1.1,0,0,1,0,.21l0,.21c0,.38,0,.76,0,1.14s0,.75,0,1.14a.75.75,0,0,0,.61.73h.11a.81.81,0,0,0,.49-.17A.65.65,0,0,0,82,20a5.33,5.33,0,0,0,.1-.92c0-1.53,0-3.09,0-4.63V14a17,17,0,0,0,0-2.08,6.35,6.35,0,0,1,0-1.63h.09c.71,0,1.38-.08,2.07-.1h.25l.09-.24,0-.1A.9.9,0,0,0,84.77,9a.81.81,0,0,0-1-.47l-.94.15a1.17,1.17,0,0,1-.69-.08c-.1-1.92-.18-4.16-.07-6.43a3.4,3.4,0,0,1,1.13,0,10.29,10.29,0,0,0,2.12.17,1.44,1.44,0,0,1,.25,0l.18,0a.92.92,0,0,0,.74-.07,1,1,0,0,0,.41-.66.76.76,0,0,0-.15-.64C86.54.76,86.17.81,85.69.87Z"/><path class="a" d="M98.3,19a.8.8,0,0,0-.36-.13,7.66,7.66,0,0,0-.78-.1,6.46,6.46,0,0,0-1.88.15l-.13,0a1,1,0,0,1-.34.06v-.64c0-1-.07-2.1-.1-3.15,0-.37,0-.75,0-1.12s0-.74,0-1.1,0-.47,0-.7a12.12,12.12,0,0,1,0-2.22,11.66,11.66,0,0,0,.17-2.62,12.33,12.33,0,0,1,0-2.07c.07-1.31,0-2.65,0-4A1,1,0,0,0,94.52.7,1.11,1.11,0,0,0,93.6.61l-.3.06V1s0,.07,0,.11a2,2,0,0,0,0,.24c0,.32,0,.65,0,1s0,.65,0,1l.07,4.49c0,.38,0,.77,0,1.18s0,.74-.07,1.1c0,.59-.09,1.2-.09,1.82s0,1.17.06,1.75c0,.9.09,1.84.06,2.76v.09c0,.35,0,.69,0,1a8.17,8.17,0,0,1-.12,2.19.87.87,0,0,0,.23.78.84.84,0,0,0,.61.27h.13l1.33-.29a3.26,3.26,0,0,1,1.7,0,1,1,0,0,0,.53.11,1.23,1.23,0,0,0,.59-.14.78.78,0,0,0,.41-.62.8.8,0,0,0-.3-.7Z"/><path class="a" d="M105.12,3.88a3.12,3.12,0,0,0-1.4-2.7,6.08,6.08,0,0,0-1.45-.61l-.1,0a1.21,1.21,0,0,0-1.37.23.84.84,0,0,0-.27.06,2.5,2.5,0,0,0-1.06.9A6.36,6.36,0,0,0,98.54,4c-.14.89-.23,1.72-.34,2.73a3.64,3.64,0,0,0,0,.71c0,.11,0,.21,0,.35a3.59,3.59,0,0,1,0,.5l.05.81c0,.54.07,1.08.09,1.63.06,1,.09,1.94.13,2.86,0,.67.05,1.31.08,1.91v2.43a2.51,2.51,0,0,0,.86,1.92,3.94,3.94,0,0,0,2.4,1h.19a2.82,2.82,0,0,0,2.57-2.18,17.32,17.32,0,0,0,.47-3.57c0-1.92,0-3.89,0-5.8S105.17,5.71,105.12,3.88ZM103,2.61a1.37,1.37,0,0,1,.57,1.16v.3a5.2,5.2,0,0,1,0,.55v0c0,.22,0,.44,0,.66s0,.58,0,.86c0,.79,0,1.6,0,2.33V11a11.26,11.26,0,0,1,0,2c0,.36,0,.71,0,1.07a.9.9,0,0,0,0,.3,9.41,9.41,0,0,1-.14,2.12c0,.35-.1.69-.13,1a2.59,2.59,0,0,1-.84,1.56c-.06.07-.18.15-.51.09a3.39,3.39,0,0,1-1-.26,1.4,1.4,0,0,1-.91-1.38v-.71c0-.48,0-.95,0-1.42,0-.79,0-1.57-.09-2.32,0-.38,0-.76-.06-1.14-.07-1.15-.14-2.29-.19-3.47a1.56,1.56,0,0,1,0-.21,2.21,2.21,0,0,0,0-.33,9.66,9.66,0,0,1,.26-3.88,3,3,0,0,1,.6-1.37,1,1,0,0,1,.63-.42l.32-.12L102,2l.26.13A4.6,4.6,0,0,1,103,2.61Z"/><path class="a" d="M114.24.37a.88.88,0,0,0-.72,0,.88.88,0,0,0-.46.56c-.08.34-.16.67-.24,1s-.15.67-.24,1-.08.45-.12.67-.07.42-.12.67-.05.3-.08.45-.06.32-.08.47c-.12.63-.24,1.25-.34,1.88l-.06.37a6.85,6.85,0,0,0-.13,1.18,16.42,16.42,0,0,1-.24,2.11l-.57,4c0,.16-.06.32-.1.49a6.13,6.13,0,0,0-.15.94,4.81,4.81,0,0,1,0,.51,9.61,9.61,0,0,0-.15-1.11c-.16-.85-.3-1.71-.45-2.58-.26-1.55-.52-3.16-.89-4.7-.12-.56-.22-1.13-.32-1.69-.15-.86-.31-1.74-.55-2.62-.06-.18-.1-.37-.15-.56s-.1-.41-.16-.6a17.13,17.13,0,0,0-.57-1.7,1.09,1.09,0,0,0-.47-.63.9.9,0,0,0-.86,0,.84.84,0,0,0-.28.71,1.88,1.88,0,0,0,.1.33l.08.22A5.5,5.5,0,0,1,106.3,3c.09.36.19.71.29,1.07a30.1,30.1,0,0,1,.82,3.5c.07.53.19,1.06.31,1.57.08.34.15.68.22,1,.26,1.55.5,3.1.74,4.7,0,.1,0,.2.07.31a3.39,3.39,0,0,1,.12.73,19.83,19.83,0,0,0,.4,2.92c.06.33.12.66.18,1a2.07,2.07,0,0,0,.21.7.92.92,0,0,0,.87.64h0a1,1,0,0,0,.8-.68l.08-.28c.07-.32.14-.64.21-1,.13-.58.26-1.17.37-1.77s.16-1.14.24-1.71.15-1.11.24-1.67l.57-3.95c0-.19,0-.38.05-.58s0-.35,0-.54c0-.59.12-1.19.18-1.74,0-.14.06-.27.1-.41a7,7,0,0,0,.17-.83,13.17,13.17,0,0,1,.42-2c.13-.49.25-1,.36-1.54a1,1,0,0,0,.05-.22l.11-.25a3.12,3.12,0,0,0,.18-.44A.86.86,0,0,0,114.24.37Z"/><path class="a" d="M120.51,18.56l-.26,0-.15,0-.18,0a2.31,2.31,0,0,1-.73.08h-.84l-.12,0h-.15c-.27,0-.5.06-.76.08V15.27c0-.68,0-1.31.07-1.93a14.77,14.77,0,0,0,0-3.05,3.34,3.34,0,0,1,1.56-.05l.11,0,.26,0c.75,0,.86-.72.92-1.16V9.06l0-.23-.11-.11a1.07,1.07,0,0,0-.79-.33h-.26l-.19,0c-.46,0-.94.07-1.45.12h0V8.49c0-.4,0-.82,0-1.2V5.55c0-.3,0-.55,0-.82V2.29h.11a3.44,3.44,0,0,0,.73,0h.57a3.39,3.39,0,0,1,1.1.15l.24,0a.84.84,0,0,0,.79-.71.78.78,0,0,0-.11-.62.77.77,0,0,0-.53-.41l-.23,0-.23,0h-.12a5.7,5.7,0,0,1-.62,0,13,13,0,0,1-1.34-.07h-.55l-.35,0a1.63,1.63,0,0,1-.44.06c-.39,0-.66.46-.71.78,0,.07,0,.14,0,.22s0,.13,0,.19V2l0,.06c0,.14,0,.28,0,.41s0,.3,0,.44c0,.64.07,1.38.07,2.08v.54c0,1.54,0,3.27,0,4.94a7.46,7.46,0,0,1,0,1.44c-.07.86-.12,1.75-.15,2.66v.56l-.05.54a6.52,6.52,0,0,0,0,.68,21.11,21.11,0,0,1-.08,2.91l0,.29a1,1,0,0,0,.7.94,6.59,6.59,0,0,0,.91.08h.12c.23,0,.46,0,.71,0h.13c.23,0,.44,0,.67,0H119v0h.38a1,1,0,0,0,.33-.07l.13,0,0,0,.18,0,.13.06a.67.67,0,0,0,.24.05.8.8,0,0,0,.72-.48,1.24,1.24,0,0,0,.15-.81A.77.77,0,0,0,120.51,18.56Zm-.15,1.55h0Z"/><path class="a" d="M129.07,19.68a1.9,1.9,0,0,0-.17-.37,12,12,0,0,1-1.07-2.82,7,7,0,0,0-.26-.79c-.47-1.11-.92-2.22-1.38-3.37a2.82,2.82,0,0,1-.3-1.34l0,0c.34-.3.72-.63,1.09-.92a2.84,2.84,0,0,0,1.07-1.59,8.52,8.52,0,0,0,.08-3.83,4.78,4.78,0,0,0-2.07-3.39l-.27-.17a5.33,5.33,0,0,0-.65-.36,3.12,3.12,0,0,0-1-.19,1,1,0,0,0-.8.42.93.93,0,0,0-.07.81,7.86,7.86,0,0,1,.15,2.32c0,.17,0,.34,0,.5s0,.31,0,.48V6.46c0,.93,0,1.86,0,2.79,0,1.44-.09,2.86-.16,4.35v.11c0,.27,0,.53,0,.8a14,14,0,0,0,0,1.68,19,19,0,0,1,0,2.58c0,.23,0,.47,0,.7s0,.43,0,.64v.22l.19.12c.38.24.74.46,1.07.13a1.48,1.48,0,0,0,.28-.55,1.31,1.31,0,0,0,.06-.48c0-.44,0-.87,0-1.31a10.2,10.2,0,0,0-.05-2.42,1.94,1.94,0,0,1,0-.57,17.1,17.1,0,0,0,.12-2.21l0,.1a23.8,23.8,0,0,1,1.41,3.57,27.94,27.94,0,0,0,1.21,3.4,1.26,1.26,0,0,0,1,.8h.27l.13-.21c.22-.36.35-.58.2-.88Zm-4.2-17.44a2,2,0,0,1,1.19,1,4.68,4.68,0,0,1,.6,1.64,9.47,9.47,0,0,1,0,3,1.48,1.48,0,0,1-.52,1l-.77.65-.42.36L125,9c0-1,0-1.92,0-2.89C125,4.85,124.94,3.57,124.88,2.24Z"/><path class="a" d="M141.85,17.59c-.09-.45-.19-.9-.26-1.34l-.65-4.63c-.19-1.43-.38-2.84-.55-4.28,0-.4-.09-.81-.13-1.22-.06-.61-.12-1.22-.21-1.82L140,4a7.51,7.51,0,0,1-.12-1.65,2.54,2.54,0,0,0-.21-.88l0-.09A.69.69,0,0,0,139.2,1a.72.72,0,0,0-.61.08,1.59,1.59,0,0,0-.81,1.37l-.07.88c-.07.83-.13,1.67-.24,2.5s-.22,1.66-.34,2.49c-.09.61-.18,1.22-.26,1.82s-.2,1.35-.3,2-.25,1.64-.37,2.46l-.31,1.88c-.06.31-.11.63-.17,1s-.11.63-.17.94l-.22,1.14a.78.78,0,0,0,.64,1,.77.77,0,0,0,.94-.65l0-.18c.06-.39.13-.8.21-1.18l.07-.3a10.65,10.65,0,0,0,1.35-.12,7,7,0,0,1,1.8-.08l0,.21,0,.19c0,.53.1,1,.17,1.57a.81.81,0,0,0,.76.68h.08a.76.76,0,0,0,.47-.17.81.81,0,0,0,.3-.57,2.93,2.93,0,0,0,0-.49C142.09,18.8,142,18.2,141.85,17.59Zm-4.31-2c0-.2.08-.39.11-.59.07-.6.17-1.2.26-1.79.07-.4.13-.81.19-1.21l.14-1.1c.09-.73.18-1.46.29-2.19,0-.3.11-.59.17-.89s.09-.45.13-.67v.17c.06.61.15,1.22.23,1.82,0,.32.09.64.13,1,.08.56.16,1.13.24,1.7s.19,1.33.28,2c.06.43.13.86.19,1.3l.19,1.23v.07l-1.74.18a4.17,4.17,0,0,1-.71,0,.87.87,0,0,1-.23-.07A3.5,3.5,0,0,1,137.54,15.55Z"/><path class="a" d="M149.4,19.68a1.9,1.9,0,0,0-.17-.37,12,12,0,0,1-1.07-2.82,7,7,0,0,0-.26-.79c-.47-1.11-.92-2.22-1.38-3.37a2.82,2.82,0,0,1-.3-1.34l0,0c.34-.3.72-.63,1.09-.92a2.84,2.84,0,0,0,1.07-1.59,8.52,8.52,0,0,0,.08-3.83,4.78,4.78,0,0,0-2.07-3.39l-.27-.17a5.33,5.33,0,0,0-.65-.36,3,3,0,0,0-1-.19,1,1,0,0,0-.8.42.93.93,0,0,0-.07.81,7.86,7.86,0,0,1,.15,2.32c0,.17,0,.34,0,.5s0,.31,0,.48V6.46c0,.93,0,1.86,0,2.79,0,1.44-.09,2.86-.16,4.35v.11c0,.27,0,.53,0,.8a14,14,0,0,0,0,1.68,19,19,0,0,1,0,2.58c0,.23,0,.47,0,.7s0,.43,0,.64v.22l.19.12c.38.24.74.46,1.07.13A1.48,1.48,0,0,0,145,20a1.31,1.31,0,0,0,.06-.48c0-.44,0-.87,0-1.31a10.2,10.2,0,0,0-.05-2.42,1.94,1.94,0,0,1,0-.57,17.1,17.1,0,0,0,.12-2.21l0,.1a23.8,23.8,0,0,1,1.41,3.57,27.94,27.94,0,0,0,1.21,3.4,1.26,1.26,0,0,0,1,.8h.27l.13-.21c.22-.36.35-.58.2-.88Zm-4.2-17.44a2,2,0,0,1,1.19,1,4.68,4.68,0,0,1,.6,1.64,9.47,9.47,0,0,1,0,3,1.48,1.48,0,0,1-.52,1l-.77.65-.42.36,0-.82c0-1,0-1.92,0-2.89C145.33,4.85,145.27,3.57,145.21,2.24Z"/><path class="a" d="M155.43,18.56l-.26,0-.15,0-.18,0a2.31,2.31,0,0,1-.73.08h-.84l-.12,0H153c-.27,0-.5.06-.76.08V15.27c0-.68,0-1.31.07-1.93a14.77,14.77,0,0,0,0-3.05,3.34,3.34,0,0,1,1.56-.05l.11,0,.26,0c.75,0,.86-.72.92-1.16V9.06l0-.23L155,8.72a1.07,1.07,0,0,0-.79-.33H154l-.19,0c-.46,0-.94.07-1.45.12h0V8.49c0-.4,0-.82,0-1.2V5.55c0-.3,0-.55,0-.82V2.29h.11a3.44,3.44,0,0,0,.73,0h.57a3.39,3.39,0,0,1,1.1.15l.24,0a.84.84,0,0,0,.79-.71.78.78,0,0,0-.11-.62.77.77,0,0,0-.53-.41L155,.7l-.23,0h-.12a5.71,5.71,0,0,1-.62,0,13,13,0,0,1-1.34-.07h-.55l-.35,0a1.63,1.63,0,0,1-.44.06c-.39,0-.66.46-.71.78,0,.07,0,.14,0,.22s0,.13,0,.19V2l0,.06c0,.14,0,.28,0,.41s0,.3,0,.44c0,.64.07,1.38.07,2.08v.54c0,1.54,0,3.27,0,4.94a7.46,7.46,0,0,1,0,1.44c-.07.86-.12,1.75-.15,2.66v.56l-.05.54a6.52,6.52,0,0,0,0,.68,21.11,21.11,0,0,1-.08,2.91l0,.29a1,1,0,0,0,.7.94,6.59,6.59,0,0,0,.91.08h.12c.23,0,.46,0,.71,0h.13c.23,0,.44,0,.67,0h.15v0h.38a1,1,0,0,0,.33-.07l.13,0,0,0,.18,0,.13.06a.68.68,0,0,0,.24.05.8.8,0,0,0,.72-.48,1.24,1.24,0,0,0,.15-.81A.77.77,0,0,0,155.43,18.56Zm-.15,1.55h0Z"/><path class="a" d="M169.08.55a.75.75,0,0,0-1,.32,1.46,1.46,0,0,0-.12.43,6.33,6.33,0,0,0-.23,1c-.29,1.15-.57,2.3-.83,3.41-.15.52-.28,1-.42,1.57l-.22-.43a23.5,23.5,0,0,1-1.17-2.5c-.13-.35-.27-.7-.41-1A14.32,14.32,0,0,1,164,1.3a.78.78,0,0,0-.34-.53A.86.86,0,0,0,163,.71l-.24.06,0,.24a1.06,1.06,0,0,1,0,.1,1,1,0,0,0,0,.47l0,.11a4.74,4.74,0,0,0,.28,1l.15.38c.33.82.64,1.61,1,2.38.5,1.07,1,2.09,1.49,3.11l.35-.13h0l-.34.16.42.73c0,.18-.07.35-.1.51s-.1.54-.18.83c-.09.64-.21,1.28-.36,1.94,0,.22-.09.45-.13.68-.11.56-.23,1.14-.3,1.71a16.52,16.52,0,0,1-.47,2.12l-.25.82c-.17.54-.33,1.09-.47,1.62a1.41,1.41,0,0,0,0,.6.67.67,0,0,0,.59.71h.1a.75.75,0,0,0,.67-.43l.82-2.86A3.19,3.19,0,0,0,166,17c.23-1.49.53-3.24.93-5l0-.15a4,4,0,0,0,.09-.5,22.86,22.86,0,0,1,.55-2.86c.09-.38.18-.76.26-1.13.21-.83.44-1.68.67-2.54l.34-1.26.18-.74c.12-.5.24-1,.39-1.5A.69.69,0,0,0,169.08.55Z"/><path class="a" d="M176.71,3.88a3.12,3.12,0,0,0-1.4-2.7,6.1,6.1,0,0,0-1.45-.61l-.1,0a1.22,1.22,0,0,0-1.37.23.85.85,0,0,0-.27.06,2.51,2.51,0,0,0-1.06.9A6.35,6.35,0,0,0,170.13,4c-.14.89-.23,1.72-.34,2.73a3.64,3.64,0,0,0,0,.71c0,.11,0,.21,0,.35a3.59,3.59,0,0,1,0,.5l.05.81c0,.54.07,1.08.09,1.63.06,1,.09,1.94.13,2.86,0,.67.05,1.31.08,1.91v2.43a2.51,2.51,0,0,0,.86,1.92,3.94,3.94,0,0,0,2.4,1h.19a2.82,2.82,0,0,0,2.57-2.18,17.33,17.33,0,0,0,.46-3.57c0-1.95,0-3.91,0-5.8S176.75,5.71,176.71,3.88Zm-2.09-1.27a1.37,1.37,0,0,1,.58,1.16v.3a5.22,5.22,0,0,1,0,.55v0c0,.22,0,.45,0,.67s0,.58,0,.86c0,.81,0,1.65,0,2.33V11a11.21,11.21,0,0,1,0,2c0,.36,0,.71,0,1.07a.9.9,0,0,0,0,.3,9.34,9.34,0,0,1-.14,2.12c0,.35-.1.69-.13,1a2.59,2.59,0,0,1-.84,1.56c-.06.07-.18.15-.51.09a3.39,3.39,0,0,1-1-.26,1.4,1.4,0,0,1-.91-1.38v-.71c0-.48,0-.95,0-1.42,0-.79,0-1.57-.09-2.32,0-.38,0-.76-.06-1.14v-.14c-.07-1.1-.14-2.2-.19-3.34a1.5,1.5,0,0,1,0-.21,2.28,2.28,0,0,0,0-.33,9.63,9.63,0,0,1,.26-3.88,3,3,0,0,1,.6-1.37,1,1,0,0,1,.63-.42l.32-.12L173.6,2l.26.13A4.5,4.5,0,0,1,174.62,2.61Z"/><path class="a" d="M184.72,2.24a3.05,3.05,0,0,0,0-.48.74.74,0,0,0-1.46-.11,2.08,2.08,0,0,0,0,.71c0,1.82.1,3.66.12,5.5,0,.83,0,1.68,0,2.53l0,.83c0,.14,0,.28,0,.42s0,.26,0,.45a5.59,5.59,0,0,1,0,.56l0,.32c0,.67-.08,1.38-.15,2.06,0,.29-.06.58-.1.87a13.38,13.38,0,0,0-.14,2.24,1,1,0,0,1-.31.86,1.53,1.53,0,0,1-1.58.3,1.69,1.69,0,0,1-1-1.08,3.51,3.51,0,0,1-.23-1.34c0-.79,0-1.61,0-2.4,0-1,0-1.95,0-2.9,0-.59,0-1.19,0-1.79,0-.85,0-1.7-.07-2.54a49.38,49.38,0,0,1,0-5,4.54,4.54,0,0,0,0-.57V1.47a.77.77,0,0,0-.8-.8,1,1,0,0,0-.46.16l-.21.1V2.46c0,.68,0,1.36,0,2,0,1.32,0,2.68.06,4,.09,2.64.12,4.74.09,6.63,0,.43,0,.86,0,1.27s0,.82,0,1.25a2.84,2.84,0,0,0,.49,1.64l.09.15a2.91,2.91,0,0,0,.24.35,2.61,2.61,0,0,0,2.05,1.15h.15a2.22,2.22,0,0,1,.53,0,2.15,2.15,0,0,0,1.6-.65,3.18,3.18,0,0,0,.9-2.35A16.81,16.81,0,0,1,184.5,16a40.2,40.2,0,0,0,.22-4.56c0-.62,0-1.25,0-1.89,0-.43,0-.87,0-1.31,0-1,0-2,0-3S184.72,3.23,184.72,2.24Z"/><path class="a" d="M188.65,20.31a1.51,1.51,0,0,0-1.11,0,1.07,1.07,0,0,0-.74.88l0,.19.13.14c.47.49.54.57,1,.63l.28,0a1,1,0,0,0,1.06-.85A.87.87,0,0,0,188.65,20.31Z"/><path class="a" d="M191.06,1.69a1.94,1.94,0,0,0-1-1.22,3.44,3.44,0,0,0-2.47-.39,3.2,3.2,0,0,0-2.43,3.58,1,1,0,0,0,.66.74l.23.09.18-.17c.46-.46.52-.55.52-1.09a1.54,1.54,0,0,1,1.28-1.68,1.44,1.44,0,0,1,1.67.82,4.35,4.35,0,0,1,0,3l-.05.13C189.11,6.77,188.57,8,188,9.31A11.52,11.52,0,0,0,187,13.75c0,.6,0,1.2,0,1.81v1c0,.28,0,.56,0,.82a5.53,5.53,0,0,0,.05.93.85.85,0,0,0,.78.72h.07c.34,0,.69-.26.69-.83,0-.21,0-.42,0-.63s0-.39,0-.59c0-1,0-2.07,0-3.13a6,6,0,0,1,.09-.92,2.81,2.81,0,0,1,.05-.31,3.31,3.31,0,0,0,.07-.42,2.55,2.55,0,0,1,.24-1.05c.3-.73.62-1.47.93-2.21.38-.89.76-1.79,1.14-2.71l.07-.19a6.35,6.35,0,0,0,.41-1.57A6.64,6.64,0,0,0,191.06,1.69Z"/></svg>